# Object Export From Tinkercad Server 2015

mtllib obj.mtl

o obj_0
v 95.999 		48 		79.374
v 95.999 		51.175 		79.374
v 92.824 		51.175 		79.374
v 92.824 		60.317 		79.374
v 39.481 		60.317 		79.374
v 39.481 		51.175 		79.374
v 48.653 		60.317 		50.187
v 36.306 		51.175 		79.374
v 36.306 		48 		79.374
v 43.653 		60.317 		50.187
v 95.999 		48 		0
v 48.653 		60.317 		56.187
v 43.653 		60.317 		56.187
v 83.653 		60.317 		56.187
v 36.306 		48 		0
v 68.653 		60.317 		30.187
v 68.653 		60.317 		36.187
v 63.653 		60.317 		30.187
v 92.824 		60.317 		0
v 95.999 		51.175 		0
v 92.824 		51.175 		0
v 63.653 		60.317 		36.187
v 88.567 		69.313 		45.04
v 88.318 		69.313 		44.437
v 87.92 		69.313 		43.919
v 87.403 		69.313 		43.522
v 86.8 		69.313 		43.272
v 86.153 		69.313 		43.187
v 85.505 		69.313 		43.272
v 84.902 		69.313 		43.522
v 84.385 		69.313 		43.919
v 83.987 		69.313 		44.437
v 83.738 		69.313 		45.04
v 83.653 		60.317 		50.187
v 67.92 		69.313 		23.919
v 67.403 		69.313 		23.522
v 66.8 		69.313 		23.272
v 66.153 		69.313 		23.187
v 65.505 		69.313 		23.272
v 64.903 		69.313 		23.522
v 68.318 		69.313 		24.437
v 43.653 		69.313 		45.687
v 48.653 		69.313 		45.687
v 68.653 		69.313 		25.687
v 68.567 		69.313 		25.04
v 43.653 		69.313 		56.187
v 48.653 		69.313 		56.187
v 64.385 		69.313 		23.919
v 48.653 		65.313 		45.687
v 63.987 		69.313 		24.437
v 63.738 		69.313 		25.04
v 63.653 		69.313 		25.687
v 48.653 		65.313 		50.187
v 68.653 		69.313 		36.187
v 63.653 		69.313 		36.187
v 43.653 		65.313 		50.187
v 43.653 		65.313 		45.687
v 85.505 		65.313 		43.272
v 86.153 		65.313 		43.187
v 86.8 		65.313 		43.272
v 87.403 		65.313 		43.522
v 87.92 		65.313 		43.919
v 88.318 		65.313 		44.437
v 88.567 		65.313 		45.04
v 83.738 		65.313 		45.04
v 83.987 		65.313 		44.437
v 84.385 		65.313 		43.919
v 84.902 		65.313 		43.522
v 64.903 		65.313 		23.522
v 65.505 		65.313 		23.272
v 66.153 		65.313 		23.187
v 66.8 		65.313 		23.272
v 67.403 		65.313 		23.522
v 67.92 		65.313 		23.919
v 68.318 		65.313 		24.437
v 68.567 		65.313 		25.04
v 68.653 		65.313 		25.687
v 63.653 		65.313 		25.687
v 63.738 		65.313 		25.04
v 63.987 		65.313 		24.437
v 64.385 		65.313 		23.919
v 46.8 		65.313 		43.272
v 46.153 		65.313 		43.187
v 46.153 		69.313 		43.187
v 46.8 		69.313 		43.272
v 45.505 		65.313 		43.272
v 45.505 		69.313 		43.272
v 44.903 		65.313 		43.522
v 44.903 		69.313 		43.522
v 44.385 		65.313 		43.919
v 44.385 		69.313 		43.919
v 43.738 		65.313 		45.04
v 43.987 		65.313 		44.437
v 43.987 		69.313 		44.437
v 43.738 		69.313 		45.04
v 88.653 		69.313 		45.687
v 88.653 		69.313 		56.187
v 88.653 		65.313 		45.687
v 88.653 		65.313 		50.187
v 88.653 		60.317 		56.187
v 88.653 		60.317 		50.187
v 63.653 		65.313 		30.187
v 68.653 		65.313 		30.187
v 36.306 		51.175 		0
v 39.481 		60.317 		0
v 39.481 		51.175 		0
v 48.567 		69.313 		45.04
v 48.318 		69.313 		44.437
v 47.92 		69.313 		43.919
v 47.403 		69.313 		43.522
v 47.403 		65.313 		43.522
v 47.92 		65.313 		43.919
v 48.318 		65.313 		44.437
v 48.567 		65.313 		45.04
v 83.653 		69.313 		45.687
v 83.653 		69.313 		56.187
v 83.653 		65.313 		50.187
v 83.653 		65.313 		45.687
# 118 vertices

g group_0_7720667

usemtl color_7720667
s 0

f 1 	2 	3
f 4 	5 	3
f 1 	3 	9
f 5 	6 	3
f 9 	3 	6
f 8 	9 	6
f 18 	105 	7
f 13 	10 	5
f 5 	12 	13
f 7 	12 	14
f 105 	5 	10
f 11 	1 	9
f 9 	15 	11
f 15 	9 	8
f 8 	6 	106
f 7 	14 	22
f 7 	22 	18
f 20 	1 	11
f 11 	21 	20
f 19 	4 	21
f 17 	34 	16
f 16 	34 	19
f 15 	106 	21
f 11 	15 	21
f 19 	18 	16
f 55 	102 	22
f 17 	55 	22
f 23 	24 	25
f 23 	25 	26
f 23 	26 	27
f 23 	27 	28
f 23 	28 	29
f 32 	33 	23
f 33 	115 	23
f 96 	23 	115
f 37 	38 	36
f 35 	36 	38
f 35 	38 	39
f 35 	39 	40
f 48 	45 	40
f 35 	40 	41
f 47 	43 	46
f 42 	46 	43
f 41 	40 	45
f 49 	43 	53
f 51 	45 	50
f 50 	45 	48
f 52 	45 	51
f 44 	45 	52
f 43 	47 	53
f 44 	55 	54
f 55 	44 	52
f 92 	114 	57
f 56 	57 	49
f 56 	49 	53
f 43 	49 	114
f 60 	61 	59
f 61 	62 	59
f 58 	59 	62
f 58 	62 	63
f 58 	63 	64
f 57 	42 	92
f 57 	56 	42
f 63 	24 	23
f 63 	23 	64
f 62 	25 	24
f 62 	24 	63
f 42 	56 	46
f 62 	61 	26
f 62 	26 	25
f 61 	60 	27
f 61 	27 	26
f 60 	59 	28
f 60 	28 	27
f 8 	104 	15
f 106 	6 	105
f 5 	105 	6
f 56 	53 	10
f 7 	10 	53
f 46 	56 	13
f 47 	46 	12
f 12 	46 	13
f 53 	47 	12
f 53 	12 	7
f 10 	13 	56
f 59 	58 	29
f 59 	29 	28
f 67 	64 	66
f 68 	64 	67
f 58 	64 	68
f 65 	66 	64
f 29 	58 	30
f 68 	30 	58
f 68 	67 	31
f 68 	31 	30
f 67 	66 	32
f 67 	32 	31
f 66 	65 	33
f 66 	33 	32
f 70 	71 	69
f 71 	72 	69
f 72 	73 	69
f 69 	73 	74
f 69 	74 	75
f 69 	75 	76
f 45 	76 	41
f 75 	41 	76
f 74 	35 	41
f 74 	41 	75
f 74 	73 	36
f 74 	36 	35
f 73 	72 	37
f 73 	37 	36
f 72 	71 	38
f 72 	38 	37
f 71 	70 	39
f 71 	39 	38
f 70 	69 	40
f 70 	40 	39
f 77 	78 	76
f 54 	103 	44
f 76 	45 	44
f 76 	44 	77
f 79 	76 	78
f 80 	76 	79
f 81 	76 	80
f 69 	76 	81
f 40 	69 	48
f 81 	48 	69
f 81 	80 	50
f 81 	50 	48
f 82 	83 	84
f 82 	84 	85
f 83 	86 	87
f 83 	87 	84
f 86 	88 	89
f 86 	89 	87
f 88 	90 	91
f 88 	91 	89
f 93 	114 	92
f 90 	114 	93
f 93 	94 	91
f 93 	91 	90
f 93 	92 	95
f 93 	95 	94
f 92 	42 	95
f 29 	30 	23
f 30 	31 	23
f 97 	99 	96
f 98 	96 	99
f 97 	100 	99
f 99 	118 	98
f 23 	96 	98
f 23 	98 	64
f 21 	3 	20
f 2 	1 	20
f 80 	79 	51
f 80 	51 	50
f 79 	78 	52
f 79 	52 	51
f 55 	52 	102
f 78 	102 	52
f 18 	22 	102
f 17 	54 	55
f 77 	44 	103
f 54 	17 	103
f 16 	103 	17
f 102 	78 	103
f 77 	103 	78
f 102 	103 	18
f 16 	18 	103
f 105 	19 	106
f 10 	7 	105
f 19 	105 	18
f 8 	106 	104
f 104 	106 	15
f 19 	21 	106
f 108 	109 	107
f 109 	110 	107
f 110 	85 	107
f 85 	84 	107
f 84 	87 	107
f 87 	89 	107
f 89 	91 	107
f 91 	94 	107
f 94 	95 	107
f 95 	42 	107
f 43 	107 	42
f 86 	83 	88
f 83 	82 	88
f 82 	111 	88
f 111 	112 	88
f 112 	113 	88
f 113 	114 	88
f 90 	88 	114
f 49 	57 	114
f 43 	114 	107
f 113 	108 	107
f 113 	107 	114
f 112 	109 	108
f 112 	108 	113
f 112 	111 	110
f 112 	110 	109
f 111 	82 	85
f 111 	85 	110
f 100 	4 	101
f 19 	101 	4
f 101 	19 	34
f 97 	116 	100
f 101 	99 	100
f 2 	20 	3
f 21 	4 	3
f 116 	97 	115
f 97 	96 	115
f 31 	32 	23
f 117 	118 	99
f 64 	98 	118
f 64 	118 	65
f 118 	115 	33
f 118 	33 	65
f 116 	115 	117
f 118 	117 	115
f 101 	34 	99
f 14 	100 	116
f 117 	99 	34
f 116 	117 	14
f 34 	14 	117
f 100 	14 	4
f 5 	4 	12
f 14 	12 	4
f 34 	17 	14
f 17 	22 	14
# 232 faces

 #end of obj_0

o obj_1
v -112.59 		31.725 		64.23
v -52.585 		34.725 		27.636
v -52.603 		34.725 		27.494
v -52.877 		35.031 		27.778
v -47.177 		16.951 		64.309
v -112.59 		19.475 		64.23
v -49.09 		22.213 		9
v -48.83 		17.913 		8.347
v -47.32 		16.475 		9
v -49.09 		18.245 		9
v -47.622 		16.851 		63.466
v -47.32 		16.475 		63
v -48.36 		17.537 		63.299
v -49.09 		18.245 		63
v -48.588 		17.791 		63.458
v -49.052 		18.245 		63.469
v -52.584 		34.725 		27.643
v -53.185 		35.349 		27.921
v -52.628 		34.725 		27.353
v -105.068 		17.67 		65.365
v -105.178 		16.475 		64.151
v -105.59 		16.475 		64.23
v -104.603 		16.475 		63.732
v -104.882 		16.879 		64.471
v -112.59 		31.725 		1.77
v -52.659 		34.725 		27.214
v -106.002 		28.725 		8.448
v -106.078 		28.725 		9
v -52.739 		34.725 		26.94
v -52.787 		34.725 		26.805
v -112.59 		19.475 		1.77
v -42.09 		16.475 		64.23
v -46.09 		16.475 		64.23
v -46.722 		16.475 		64.054
v -52.841 		34.725 		26.673
v -47.139 		16.475 		63.629
v -102.59 		18.245 		63
v -52.967 		34.725 		26.417
v -104.36 		16.475 		63
v -104.268 		16.652 		63.481
v -106.761 		27.963 		8.347
v -53.037 		34.725 		26.293
v -102.938 		17.935 		63.405
v -53.113 		34.725 		26.173
v -53.194 		34.725 		26.056
v -47.357 		16.475 		8.416
v -106.58 		28.153 		8.392
v -103.307 		17.537 		63.2
v -48.994 		16.475 		5.411
v -47.562 		16.475 		7.504
v -40.86 		31.725 		0
v -39.09 		31.725 		1.77
v -40.645 		32.112 		0.265
v -40.46 		31.975 		0.42
v -39.854 		32.179 		1.056
v -39.164 		32.379 		1.77
v -47.941 		16.475 		6.65
v -106.84 		27.963 		9
v -53.374 		35.525 		27.724
v -53.364 		35.525 		27.832
v -39.269 		32.741 		1.77
v -53.359 		35.525 		28.001
v -106.84 		23.737 		65.238
v -53.388 		35.525 		27.617
v -42.09 		16.475 		1.77
v -40.136 		32.53 		0.885
v -52.09 		16.475 		4.23
v -53.407 		35.525 		27.51
v -50.265 		16.475 		4.593
v -53.43 		35.525 		27.405
v -102.59 		22.213 		9
v -53.458 		35.525 		27.3
v -103.048 		22.757 		8.244
v -53.527 		35.525 		27.095
v -110.038 		17.471 		65.17
v -109.861 		16.978 		64.717
v -109.59 		16.475 		64.23
v -102.541 		22.213 		8.485
v -110.152 		16.528 		64.23
v -103.352 		22.975 		9
v -53.568 		35.525 		26.995
v -50.931 		16.475 		4.373
v -53.614 		35.525 		26.897
v -110.508 		17.213 		64.783
v -53.663 		35.525 		26.801
v -53.717 		35.525 		26.707
v -96.321 		34.725 		31.844
v -96.468 		34.725 		31.916
v -96.604 		34.725 		32.007
v -96.727 		34.725 		32.115
v -106.078 		22.975 		9
v -96.834 		34.725 		32.238
v -96.925 		34.725 		32.374
v -96.998 		34.725 		32.521
v -97.05 		34.725 		32.676
v -104.36 		16.475 		9
v -94.635 		34.725 		32.676
v -53.774 		35.525 		26.616
v -94.688 		34.725 		32.521
v -94.76 		34.725 		32.374
v -94.851 		34.725 		32.238
v -94.959 		34.725 		32.115
v -100.058 		16.475 		4.253
v -95.082 		34.725 		32.007
v -99.59 		16.475 		4.23
v -111.424 		18.573 		65.181
v -95.218 		34.725 		31.916
v -100.635 		16.475 		4.347
v -95.364 		34.725 		31.844
v -102.59 		18.245 		9
v -95.519 		34.725 		31.791
v -102.042 		16.475 		4.909
v -95.68 		34.725 		31.759
v -102.552 		18.245 		8.531
v -112.464 		18.64 		64.23
v -111.847 		18.87 		64.894
v -53.836 		35.525 		26.527
v -95.843 		34.725 		31.749
v -96.006 		34.725 		31.759
v -53.28 		34.725 		25.942
v -96.166 		34.725 		31.791
v -53.371 		34.725 		25.832
v -53.97 		35.525 		26.358
v -53.467 		34.725 		25.727
v -102.793 		16.475 		5.466
v -54.042 		35.525 		26.278
v -103.775 		17.028 		8.496
v -103.201 		16.475 		5.885
v -54.118 		35.525 		26.201
v -53.567 		34.725 		25.625
v -54.197 		35.525 		26.128
v -111.42 		19.172 		65.369
v -95.88 		34.725 		24.702
v -103.739 		16.475 		6.65
v -106.84 		23.737 		9
v -104.034 		16.475 		7.286
v -53.779 		34.725 		25.436
v -53.891 		34.725 		25.349
v -106.544 		23.451 		8.763
v -45.602 		28.725 		32.768
v -106.802 		23.737 		8.531
v -92.603 		34.725 		27.494
v -46.076 		28.725 		7.629
v -92.585 		34.725 		27.636
v -92.584 		34.725 		27.643
v -54.126 		34.725 		25.189
v -110.991 		18.244 		65.358
v -54.249 		34.725 		25.117
v -46.44 		28.725 		7.263
v -110.908 		16.785 		64.23
v -92.628 		34.725 		27.353
v -46.839 		28.725 		7
v -111.424 		17.11 		64.23
v -54.364 		35.525 		25.992
v -47.84 		28.725 		6.762
v -92.659 		34.725 		27.214
v -47.443 		28.725 		6.799
v -54.451 		35.525 		25.929
v -54.542 		35.525 		25.871
v -92.739 		34.725 		26.94
v -92.787 		34.725 		26.805
v -111.445 		17.99 		64.844
v -111.868 		17.529 		64.23
v -54.634 		35.525 		25.816
v -92.841 		34.725 		26.673
v -54.374 		34.725 		25.05
v -54.827 		35.525 		25.719
v -45.163 		28.153 		8.156
v -54.633 		34.725 		24.934
v -105.112 		28.725 		7.168
v -55.026 		35.525 		25.64
v -103.84 		28.725 		6.762
v -54.901 		34.725 		24.84
v -55.128 		35.525 		25.606
v -92.967 		34.725 		26.417
v -55.037 		34.725 		24.802
v -45.596 		28.415 		7.799
v -55.232 		35.525 		25.577
v -105.502 		28.725 		7.507
v -55.176 		34.725 		24.77
v -93.037 		34.725 		26.293
v -93.113 		34.725 		26.173
v -105.781 		28.725 		7.894
v -55.442 		35.525 		25.534
v -55.456 		34.725 		24.724
v -93.194 		34.725 		26.056
v -55.738 		34.725 		24.703
v -55.656 		35.525 		25.508
v -45.808 		28.201 		7.138
v -45.824 		27.963 		6.784
v -93.28 		34.725 		25.942
v -55.763 		35.525 		25.502
v -93.371 		34.725 		25.832
v -55.88 		34.725 		24.702
v -55.87 		35.525 		25.501
v -93.467 		34.725 		25.727
v -45.444 		27.963 		7.201
v -93.567 		34.725 		25.625
v -56.811 		28.725 		35.352
v -45.15 		27.963 		7.682
v -56.496 		28.725 		35.459
v -56.022 		34.725 		24.706
v -56.17 		28.725 		35.524
v -112.013 		18.214 		64.496
v -112.238 		18.073 		64.23
v -93.779 		34.725 		25.436
v -55.838 		28.725 		35.546
v -56.085 		35.525 		25.513
v -55.506 		28.725 		35.524
v -56.304 		34.725 		24.735
v -93.891 		34.725 		25.349
v -55.179 		28.725 		35.459
v -56.297 		35.525 		25.544
v -54.864 		28.725 		35.352
v -56.444 		34.725 		24.758
v -94.126 		34.725 		25.189
v -56.583 		34.725 		24.787
v -56.507 		35.525 		25.593
v -56.856 		34.725 		24.864
v -46.275 		27.963 		6.446
v -56.609 		35.525 		25.624
v -56.989 		34.725 		24.911
v -105.199 		27.963 		6.334
v -54.566 		28.725 		35.205
v -56.811 		35.525 		25.7
v -54.289 		28.725 		35.02
v -57.25 		34.725 		25.023
v -54.039 		28.725 		34.8
v -56.908 		35.525 		25.745
v -53.82 		28.725 		34.55
v -53.635 		28.725 		34.273
v -94.249 		34.725 		25.117
v -53.488 		28.725 		33.974
v -53.381 		28.725 		33.659
v -105.877 		28.392 		7.434
v -53.316 		28.725 		33.332
v -57.098 		35.525 		25.846
v -94.374 		34.725 		25.05
v -53.294 		28.725 		33
v -57.278 		35.525 		25.964
v -94.633 		34.725 		24.934
v -106.209 		27.963 		7.162
v -58.382 		28.725 		33
v -94.901 		34.725 		24.84
v -58.36 		28.725 		33.332
v -58.295 		28.725 		33.659
v -58.188 		28.725 		33.974
v -95.037 		34.725 		24.802
v -58.321 		35.525 		28.001
v -59.115 		34.725 		28.001
v -58.041 		28.725 		34.273
v -57.856 		28.725 		34.55
v -57.939 		35.525 		26.667
v -57.637 		28.725 		34.8
v -57.386 		28.725 		35.02
v -95.176 		34.725 		24.77
v -58.045 		35.525 		26.855
v -57.11 		28.725 		35.205
v -106.421 		27.963 		7.474
v -95.456 		34.725 		24.724
v -95.738 		34.725 		24.703
v -58.135 		35.525 		27.052
v -58.921 		34.725 		26.881
v -58.174 		35.525 		27.153
v -96.022 		34.725 		24.706
v -58.966 		34.725 		27.016
v -58.238 		35.525 		27.359
v -57.077 		30.723 		32.836
v -59.006 		34.725 		27.154
v -59.066 		34.725 		27.433
v -58.263 		35.525 		27.464
v -57.088 		30.723 		33
v -58.284 		35.525 		27.57
v -57.077 		30.723 		33.163
v -59.088 		34.725 		27.574
v -58.312 		35.525 		27.785
v -57.045 		30.723 		33.324
v -59.103 		34.725 		27.716
v -59.112 		34.725 		27.858
v -58.319 		35.525 		27.893
v -96.304 		34.725 		24.735
v -56.993 		30.723 		33.479
v -56.92 		30.723 		33.625
v -96.444 		34.725 		24.758
v -57.377 		34.725 		25.087
v -96.583 		34.725 		24.787
v -56.83 		30.723 		33.761
v -57.621 		34.725 		25.232
v -96.856 		34.725 		24.864
v -56.722 		30.723 		33.885
v -57.739 		34.725 		25.312
v -96.989 		34.725 		24.911
v -56.599 		30.723 		33.992
v -47.186 		27.963 		6.074
v -105.678 		27.963 		6.631
v -56.463 		30.723 		34.083
v -47.84 		27.963 		6
v -109.59 		16.475 		1.77
v -56.316 		30.723 		34.156
v -42.09 		32.955 		0
v -41.749 		32.9 		0
v -57.852 		34.725 		25.398
v -56.161 		30.723 		34.208
v -57.365 		35.525 		26.029
v -56.001 		30.723 		34.24
v -55.838 		30.723 		34.251
v -41.358 		32.712 		0
v -57.962 		34.725 		25.488
v -57.528 		35.525 		26.169
v -55.675 		30.723 		34.24
v -103.84 		27.963 		6
v -104.309 		27.963 		6.038
v -58.068 		34.725 		25.583
v -55.514 		30.723 		34.208
v -57.605 		35.525 		26.244
v -55.359 		30.723 		34.156
v -58.17 		34.725 		25.682
v -97.25 		34.725 		25.023
v -58.268 		34.725 		25.786
v -57.679 		35.525 		26.323
v -97.377 		34.725 		25.087
v -58.361 		34.725 		25.894
v -58.532 		34.725 		26.121
v -57.816 		35.525 		26.489
v -97.621 		34.725 		25.232
v -104.677 		27.963 		6.121
v -58.683 		34.725 		26.363
v -97.739 		34.725 		25.312
v -97.852 		34.725 		25.398
v -58.751 		34.725 		26.488
v -58.813 		34.725 		26.617
v -97.962 		34.725 		25.488
v -42.09 		34.725 		64.23
v -98.068 		34.725 		25.583
v -98.17 		34.725 		25.682
v -106.592 		27.963 		7.809
v -98.268 		34.725 		25.786
v -110.322 		32.712 		0
v -111.228 		32.717 		0.686
v -57.077 		34.725 		32.836
v -57.088 		34.725 		33
v -57.077 		34.725 		33.163
v -57.045 		34.725 		33.324
v -40.787 		18.666 		0.307
v -56.993 		34.725 		33.479
v -110.734 		32.166 		0
v -54.598 		30.723 		32.836
v -54.588 		30.723 		33
v -56.92 		34.725 		33.625
v -111.723 		32.587 		1.073
v -40.926 		19.09 		0
v -56.83 		34.725 		33.761
v -99.115 		34.725 		30.666
v -39.978 		18.706 		1.018
v -99.115 		34.725 		28.001
v -56.722 		34.725 		33.885
v -112.516 		32.379 		1.77
v -39.256 		18.505 		1.77
v -56.599 		34.725 		33.992
v -56.463 		34.725 		34.083
v -55.213 		30.723 		34.083
v -56.316 		34.725 		34.156
v -55.077 		30.723 		33.992
v -110.82 		31.725 		0
v -56.161 		34.725 		34.208
v -56.001 		34.725 		34.24
v -54.954 		30.723 		33.885
v -55.838 		34.725 		34.251
v -55.675 		34.725 		34.24
v -54.846 		30.723 		33.761
v -55.514 		34.725 		34.208
v -40.86 		19.475 		0
v -55.359 		34.725 		34.156
v -39.09 		19.475 		1.77
v -39.128 		19.006 		1.77
v -54.755 		30.723 		33.625
v -98.361 		34.725 		25.894
v -54.598 		34.725 		32.836
v -54.588 		34.725 		33
v -54.683 		30.723 		33.479
v -39.531 		18.728 		1.438
v -55.213 		34.725 		34.083
v -54.63 		30.723 		33.324
v -98.532 		34.725 		26.121
v -55.077 		34.725 		33.992
v -102.336 		22.213 		7.811
v -54.598 		30.723 		33.163
v -54.954 		34.725 		33.885
v -98.683 		34.725 		26.363
v -102.263 		22.648 		6.846
v -102.07 		22.213 		7.315
v -54.846 		34.725 		33.761
v -54.755 		34.725 		33.625
v -98.751 		34.725 		26.488
v -54.683 		34.725 		33.479
v -98.813 		34.725 		26.617
v -54.63 		34.725 		33.324
v -54.598 		34.725 		33.163
v -98.921 		34.725 		26.881
v -98.966 		34.725 		27.016
v -101.491 		22.769 		6
v -101.573 		22.213 		6.751
v -55.697 		34.725 		41.298
v -55.983 		34.725 		41.298
v -99.006 		34.725 		27.154
v -99.066 		34.725 		27.433
v -55.271 		34.725 		41.251
v -99.088 		34.725 		27.574
v -55.131 		34.725 		41.223
v -54.992 		34.725 		41.189
v -99.103 		34.725 		27.716
v -54.855 		34.725 		41.149
v -99.112 		34.725 		27.858
v -54.72 		34.725 		41.102
v -101.155 		22.213 		6.446
v -56.96 		34.725 		41.102
v -98.387 		28.725 		33
v -56.688 		34.725 		41.189
v -98.365 		28.725 		33.332
v -56.549 		34.725 		41.223
v -100.604 		22.213 		6.184
v -109.59 		34.725 		1.77
v -40.476 		18.118 		0.885
v -40.111 		17.23 		1.77
v -56.268 		34.725 		41.273
v -41.565 		32.836 		66
v -42.09 		32.955 		66
v -44.078 		29.487 		66
v -55.555 		34.725 		41.289
v -40.688 		16.827 		1.77
v -40.86 		31.725 		66
v -40.908 		32.052 		66
v -41.108 		32.453 		66
v -55.412 		34.725 		41.273
v -40.86 		19.475 		66
v -44.078 		22.213 		66
v -100.059 		22.213 		6.038
v -98.387 		30.723 		33
v -42.09 		18.245 		66
v -98.365 		30.723 		33.332
v -41.649 		18.331 		66
v -41.269 		18.569 		66
v -40.981 		18.967 		66
v -39.721 		17.637 		1.77
v -46.09 		18.245 		66
v -110.219 		32.774 		66
v -109.59 		32.955 		66
v -109.889 		32.917 		66
v -110.701 		32.25 		66
v -107.602 		29.487 		66
v -110.82 		31.725 		66
v -105.59 		18.245 		66
v -107.602 		22.213 		66
v -54.587 		34.725 		41.05
v -54.456 		34.725 		40.992
v -110.82 		19.475 		66
v -110.734 		19.034 		66
v -110.577 		18.743 		66
v -110.253 		18.456 		66
v -109.59 		18.245 		66
v -99.59 		22.213 		6
v -40.622 		32.186 		65.69
v -41.593 		18.354 		0
v -42.09 		18.245 		0
v -56.811 		30.723 		35.352
v -56.496 		30.723 		35.459
v -56.17 		30.723 		35.524
v -55.838 		30.723 		35.546
v -55.506 		30.723 		35.524
v -55.179 		30.723 		35.459
v -54.864 		30.723 		35.352
v -101.116 		18.245 		6.419
v -100.606 		18.245 		6.179
v -39.863 		18.051 		1.416
v -109.59 		32.955 		0
v -54.566 		30.723 		35.205
v -54.289 		30.723 		35.02
v -54.039 		30.723 		34.8
v -53.82 		30.723 		34.55
v -53.635 		30.723 		34.273
v -109.59 		18.245 		0
v -110.322 		18.488 		0
v -53.488 		30.723 		33.974
v -53.381 		30.723 		33.659
v -110.518 		18.674 		0
v -53.316 		30.723 		33.332
v -53.294 		30.723 		33
v -110.741 		19.063 		0
v -110.82 		19.475 		0
v -39.09 		31.725 		64.23
v -54.328 		34.725 		40.928
v -58.382 		30.723 		33
v -39.09 		19.475 		64.23
v -41.525 		17.928 		65.58
v -58.36 		30.723 		33.332
v -58.295 		30.723 		33.659
v -58.188 		30.723 		33.974
v -54.202 		34.725 		40.859
v -58.041 		30.723 		34.273
v -54.08 		34.725 		40.784
v -57.856 		30.723 		34.55
v -57.637 		30.723 		34.8
v -57.386 		30.723 		35.02
v -53.961 		34.725 		40.704
v -53.846 		34.725 		40.619
v -57.11 		30.723 		35.205
v -46.699 		22.975 		7.077
v -53.627 		34.725 		40.434
v -53.524 		34.725 		40.335
v -45.336 		23.737 		7.355
v -53.331 		34.725 		40.122
v -45.689 		23.737 		6.915
v -46.356 		23.737 		6.398
v -47.281 		18.245 		65.752
v -52.565 		34.725 		36.501
v -52.565 		34.725 		38.001
v -46.559 		18.245 		65.962
v -53.157 		34.725 		39.894
v -42.09 		34.725 		24.702
v -46.184 		22.213 		65.997
v -94.085 		35.525 		39.769
v -53.078 		34.725 		39.774
v -94.011 		35.525 		39.69
v -93.871 		35.525 		39.523
v -93.747 		35.525 		39.345
v -93.639 		35.525 		39.156
v -93.591 		35.525 		39.058
v -53.003 		34.725 		39.651
v -93.417 		35.525 		38.542
v -93.443 		35.525 		38.648
v -93.38 		35.525 		38.328
v -52.871 		34.725 		39.396
v -93.396 		35.525 		38.435
v -52.814 		34.725 		39.264
v -93.508 		35.525 		38.856
v -93.473 		35.525 		38.753
v -46.178 		22.975 		7.507
v -93.361 		35.525 		38.11
v -93.359 		35.525 		38.001
v -93.359 		35.525 		37.301
v -52.762 		34.725 		39.13
v -52.676 		34.725 		38.855
v -45.803 		23.308 		7.434
v -52.642 		34.725 		38.716
v -96.056 		35.525 		40.492
v -95.84 		35.525 		40.501
v -95.732 		35.525 		40.499
v -95.516 		35.525 		40.48
v -95.303 		35.525 		40.442
v -95.198 		35.525 		40.416
v -94.991 		35.525 		40.35
v -94.89 		35.525 		40.311
v -94.791 		35.525 		40.267
v -94.599 		35.525 		40.166
v -94.417 		35.525 		40.049
v -94.245 		35.525 		39.916
v -52.614 		34.725 		38.574
v -45.63 		23.261 		7.785
v -52.593 		34.725 		38.432
v -97.263 		35.525 		40.049
v -97.173 		35.525 		40.11
v -96.986 		35.525 		40.219
v -96.79 		35.525 		40.311
v -96.586 		35.525 		40.386
v -96.377 		35.525 		40.442
v -96.271 		35.525 		40.463
v -45.86 		22.975 		7.965
v -52.577 		34.725 		38.289
v -52.568 		34.725 		38.145
v -98.089 		35.525 		39.058
v -97.989 		35.525 		39.251
v -97.933 		35.525 		39.345
v -97.873 		35.525 		39.435
v -97.741 		35.525 		39.608
v -97.595 		35.525 		39.769
v -97.435 		35.525 		39.916
v -98.3 		35.525 		38.328
v -98.284 		35.525 		38.435
v -46.743 		22.213 		65.921
v -47.281 		22.213 		65.752
v -101.569 		18.245 		6.755
v -45.072 		23.737 		7.853
v -47.616 		22.213 		65.581
v -48.624 		22.975 		7.542
v -102.065 		18.245 		7.318
v -98.263 		35.525 		38.542
v -98.237 		35.525 		38.648
v -49.066 		22.975 		6.762
v -98.207 		35.525 		38.753
v -98.172 		35.525 		38.856
v -98.321 		35.525 		37.301
v -98.321 		35.525 		38.001
v -98.319 		35.525 		38.11
v -48.763 		22.648 		8.151
v -98.321 		35.525 		30.298
v -93.374 		35.525 		27.724
v -93.388 		35.525 		27.617
v -93.364 		35.525 		27.832
v -93.407 		35.525 		27.51
v -93.43 		35.525 		27.405
v -93.527 		35.525 		27.095
v -93.568 		35.525 		26.995
v -93.717 		35.525 		26.707
v -39.509 		33.251 		64.23
v -47.602 		22.975 		6.782
v -93.359 		35.525 		28.001
v -93.458 		35.525 		27.3
v -93.614 		35.525 		26.897
v -93.663 		35.525 		26.801
v -93.774 		35.525 		26.616
v -94.042 		35.525 		26.278
v -94.118 		35.525 		26.201
v -39.939 		33.81 		64.23
v -79.7297 		28.725 		26.5565
v -93.836 		35.525 		26.527
v -93.97 		35.525 		26.358
v -94.197 		35.525 		26.128
v -57.224 		34.725 		40.992
v -94.634 		35.525 		25.816
v -40.606 		34.327 		64.23
v -94.542 		35.525 		25.871
v -95.87 		35.525 		25.501
v -95.763 		35.525 		25.502
v -57.093 		34.725 		41.05
v -94.364 		35.525 		25.992
v -94.451 		35.525 		25.929
v -94.827 		35.525 		25.719
v -95.026 		35.525 		25.64
v -95.128 		35.525 		25.606
v -95.232 		35.525 		25.577
v -95.442 		35.525 		25.534
v -95.656 		35.525 		25.508
v -96.085 		35.525 		25.513
v -97.939 		35.525 		26.667
v -98.045 		35.525 		26.855
v -98.135 		35.525 		27.052
v -98.174 		35.525 		27.153
v -98.238 		35.525 		27.359
v -98.263 		35.525 		27.464
v -98.284 		35.525 		27.57
v -97.365 		35.525 		26.029
v -97.278 		35.525 		25.964
v -41.074 		34.546 		64.23
v -97.528 		35.525 		26.169
v -97.605 		35.525 		26.244
v -97.098 		35.525 		25.846
v -53.316 		28.725 		32.667
v -41.482 		34.659 		64.23
v -97.679 		35.525 		26.323
v -97.816 		35.525 		26.489
v -53.381 		28.725 		32.341
v -96.297 		35.525 		25.544
v -96.507 		35.525 		25.593
v -96.609 		35.525 		25.624
v -96.811 		35.525 		25.7
v -96.908 		35.525 		25.745
v -53.488 		28.725 		32.025
v -98.312 		35.525 		27.785
v -98.319 		35.525 		27.893
v -98.321 		35.525 		28.001
v -95.983 		34.725 		41.298
v -58.188 		28.725 		32.025
v -41.599 		33.878 		65.015
v -41.859 		34.361 		64.584
v -58.295 		28.725 		32.341
v -58.36 		28.725 		32.667
v -95.697 		34.725 		41.298
v -41.467 		33.32 		65.513
v -55.838 		28.725 		30.454
v -56.17 		28.725 		30.476
v -56.496 		28.725 		30.541
v -95.555 		34.725 		41.289
v -56.811 		28.725 		30.648
v -55.506 		28.725 		30.476
v -58.349 		34.725 		40.122
v -95.412 		34.725 		41.273
v -53.635 		28.725 		31.727
v -58.255 		34.725 		40.231
v -95.271 		34.725 		41.251
v -53.82 		28.725 		31.45
v -58.156 		34.725 		40.335
v -54.039 		28.725 		31.199
v -47.136 		23.261 		6.578
v -54.289 		28.725 		30.98
v -58.053 		34.725 		40.434
v -54.566 		28.725 		30.795
v -95.131 		34.725 		41.223
v -54.864 		28.725 		30.648
v -55.179 		28.725 		30.541
v -57.834 		34.725 		40.619
v -94.992 		34.725 		41.189
v -57.719 		34.725 		40.704
v -57.386 		28.725 		30.98
v -94.855 		34.725 		41.149
v -57.637 		28.725 		31.199
v -57.856 		28.725 		31.45
v -57.478 		34.725 		40.859
v -58.041 		28.725 		31.727
v -94.72 		34.725 		41.102
v -94.587 		34.725 		41.05
v -47.141 		23.737 		6.087
v -57.11 		28.725 		30.795
v -94.456 		34.725 		40.992
v -59.115 		34.725 		38.001
v -59.115 		34.725 		36.501
v -48.704 		23.737 		6
v -99.59 		18.245 		6
v -100.244 		18.245 		6.074
v -47.699 		23.737 		6.007
v -97.224 		34.725 		40.992
v -97.093 		34.725 		41.05
v -58.918 		34.725 		39.13
v -56.463 		30.723 		31.916
v -101.713 		17.664 		6.12
v -96.96 		34.725 		41.102
v -56.599 		30.723 		32.007
v -58.866 		34.725 		39.264
v -96.688 		34.725 		41.189
v -58.809 		34.725 		39.396
v -56.722 		30.723 		32.115
v -39.139 		32.24 		64.23
v -58.745 		34.725 		39.525
v -96.549 		34.725 		41.223
v -56.83 		30.723 		32.238
v -58.677 		34.725 		39.651
v -58.602 		34.725 		39.774
v -96.268 		34.725 		41.273
v -56.92 		30.723 		32.374
v -58.523 		34.725 		39.894
v -56.993 		30.723 		32.521
v -58.439 		34.725 		40.01
v -39.269 		32.741 		64.23
v -94.202 		34.725 		40.859
v -57.045 		30.723 		32.676
v -59.112 		34.725 		38.145
v -94.08 		34.725 		40.784
v -59.103 		34.725 		38.289
v -59.087 		34.725 		38.432
v -49.108 		17.72 		7.131
v -59.066 		34.725 		38.574
v -93.961 		34.725 		40.704
v -55.359 		30.723 		31.844
v -59.038 		34.725 		38.716
v -93.846 		34.725 		40.619
v -59.004 		34.725 		38.855
v -55.514 		30.723 		31.791
v -102.142 		17.36 		6.074
v -93.627 		34.725 		40.434
v -55.675 		30.723 		31.759
v -55.838 		30.723 		31.749
v -93.524 		34.725 		40.335
v -56.001 		30.723 		31.759
v -56.463 		34.725 		31.916
v -93.331 		34.725 		40.122
v -56.599 		34.725 		32.007
v -56.161 		30.723 		31.791
v -56.722 		34.725 		32.115
v -48.389 		17.36 		7.825
v -56.83 		34.725 		32.238
v -48.272 		17.139 		7.494
v -93.157 		34.725 		39.894
v -56.316 		30.723 		31.844
v -56.92 		34.725 		32.374
v -56.993 		34.725 		32.521
v -93.078 		34.725 		39.774
v -57.045 		34.725 		32.676
v -93.003 		34.725 		39.651
v -40.367 		32.393 		65.381
v -40.257 		32.732 		65.137
v -92.871 		34.725 		39.396
v -55.359 		34.725 		31.844
v -55.514 		34.725 		31.791
v -55.675 		34.725 		31.759
v -92.814 		34.725 		39.264
v -55.838 		34.725 		31.749
v -39.861 		32.121 		64.96
v -56.001 		34.725 		31.759
v -56.161 		34.725 		31.791
v -92.762 		34.725 		39.13
v -56.316 		34.725 		31.844
v -39.426 		32.078 		64.54
v -54.63 		34.725 		32.676
v -48.843 		17.36 		6.871
v -100.56 		17.747 		5.642
v -54.683 		34.725 		32.521
v -54.755 		34.725 		32.374
v -92.676 		34.725 		38.855
v -54.846 		34.725 		32.238
v -54.954 		34.725 		32.115
v -55.077 		34.725 		32.007
v -92.642 		34.725 		38.716
v -55.213 		34.725 		31.916
v -41.573 		17.959 		0.376
v -41.864 		17.502 		0.758
v -92.614 		34.725 		38.574
v -45.602 		28.725 		65.238
v -44.84 		27.963 		65.238
v -41.052 		17.265 		1.217
v -41.209 		16.612 		1.77
v -54.63 		30.723 		32.676
v -92.593 		34.725 		38.432
v -54.683 		30.723 		32.521
v -92.577 		34.725 		38.289
v -54.755 		30.723 		32.374
v -54.846 		30.723 		32.238
v -92.568 		34.725 		38.145
v -92.565 		34.725 		38.001
v -54.954 		30.723 		32.115
v -55.077 		30.723 		32.007
v -59.115 		34.725 		30.666
v -55.213 		30.723 		31.916
v -41.184 		18.235 		0.31
v -41.668 		16.509 		1.77
v -103.003 		22.975 		7.456
v -102.614 		22.975 		6.762
v -103.92 		22.975 		6.765
v -40.128 		19.096 		65.226
v -39.525 		19.055 		64.623
v -39.143 		18.913 		64.23
v -105.112 		22.975 		7.168
v -105.502 		22.975 		7.507
v -105.82 		22.975 		7.965
v -94.328 		34.725 		40.928
v -105.992 		23.165 		7.88
v -40.54 		18.609 		65.447
v -39.974 		18.628 		64.949
v -98.255 		34.725 		40.231
v -98.156 		34.725 		40.335
v -53.316 		30.723 		32.667
v -98.053 		34.725 		40.434
v -53.381 		30.723 		32.341
v -53.488 		30.723 		32.025
v -49.2 		18.245 		8.209
v -97.834 		34.725 		40.619
v -97.719 		34.725 		40.704
v -58.188 		30.723 		32.025
v -58.295 		30.723 		32.341
v -58.36 		30.723 		32.667
v -97.478 		34.725 		40.859
v -55.838 		30.723 		30.454
v -56.17 		30.723 		30.476
v -56.496 		30.723 		30.541
v -56.811 		30.723 		30.648
v -106.125 		23.451 		7.54
v -106.421 		23.737 		7.474
v -55.506 		30.723 		30.476
v -53.635 		30.723 		31.727
v -53.82 		30.723 		31.45
v -50.449 		22.431 		6.234
v -54.039 		30.723 		31.199
v -51.074 		22.213 		6.179
v -54.289 		30.723 		30.98
v -50.327 		22.213 		6.573
v -54.566 		30.723 		30.795
v -54.864 		30.723 		30.648
v -55.179 		30.723 		30.541
v -40.837 		18.244 		65.469
v -40.456 		18.279 		65.204
v -57.386 		30.723 		30.98
v -57.637 		30.723 		31.199
v -57.856 		30.723 		31.45
v -49.34 		22.648 		6.941
v -58.041 		30.723 		31.727
v -50.005 		22.213 		6.849
v -40.018 		18.219 		64.805
v -104.854 		23.737 		6.184
v -57.11 		30.723 		30.795
v -39.301 		18.371 		64.23
v -40.252 		17.106 		64.23
v -105.764 		23.404 		7.157
v -40.787 		17.433 		64.805
v -40.606 		16.873 		64.23
v -104.954 		23.261 		6.737
v -106.085 		23.737 		7.021
v -40.515 		33.134 		0.885
v -39.376 		33.002 		1.77
v -49.639 		22.213 		7.277
v -40.303 		33.36 		1.195
v -39.841 		33.708 		1.77
v -39.721 		17.637 		64.23
v -105.678 		23.737 		6.631
v -40.107 		33.974 		1.77
v -105.366 		23.737 		6.419
v -40.405 		34.205 		1.77
v -49.359 		22.213 		7.767
v -93.321 		28.725 		32.667
v -102.663 		22.512 		7.82
v -93.386 		28.725 		32.341
v -93.493 		28.725 		32.025
v -96.501 		28.725 		30.541
v -40.901 		34.471 		1.77
v -96.816 		28.725 		30.648
v -104.309 		23.737 		6.038
v -102.976 		23.737 		6
v -95.843 		28.725 		30.454
v -96.175 		28.725 		30.476
v -94.294 		28.725 		30.98
v -94.571 		28.725 		30.795
v -94.869 		28.725 		30.648
v -95.184 		28.725 		30.541
v -95.511 		28.725 		30.476
v -102.837 		17.36 		6.871
v -93.64 		28.725 		31.727
v -93.825 		28.725 		31.45
v -94.044 		28.725 		31.199
v -102.43 		17.885 		7.217
v -97.115 		28.725 		30.795
v -97.391 		28.725 		30.98
v -97.641 		28.725 		31.199
v -102.622 		17.028 		6.072
v -97.861 		28.725 		31.45
v -98.046 		28.725 		31.727
v -98.193 		28.725 		32.025
v -98.3 		28.725 		32.341
v -96.321 		30.723 		31.844
v -96.468 		30.723 		31.916
v -96.604 		30.723 		32.007
v -41.235 		33.459 		0.708
v -102.406 		18.245 		7.986
v -41.074 		33.678 		0.973
v -96.727 		30.723 		32.115
v -96.834 		30.723 		32.238
v -102.926 		17.54 		7.395
v -44.84 		23.737 		65.238
v -96.925 		30.723 		32.374
v -96.998 		30.723 		32.521
v -49.701 		23.051 		6
v -97.05 		30.723 		32.676
v -51.369 		22.306 		6
v -41.622 		34.681 		1.77
v -94.635 		30.723 		32.676
v -52.09 		22.213 		6
v -51.436 		22.213 		6.074
v -42.09 		34.725 		1.77
v -94.688 		30.723 		32.521
v -41.286 		17.583 		65.17
v -94.76 		30.723 		32.374
v -103.645 		17.028 		7.86
v -94.851 		30.723 		32.238
v -41.074 		16.654 		64.23
v -94.959 		30.723 		32.115
v -95.082 		30.723 		32.007
v -41.418 		17.182 		64.838
v -95.218 		30.723 		31.916
v -106.656 		23.737 		7.986
v -95.364 		30.723 		31.844
v -95.519 		30.723 		31.791
v -45.745 		28.725 		8.261
v -95.68 		30.723 		31.759
v -45.602 		28.725 		9
v -95.843 		30.723 		31.749
v -96.006 		30.723 		31.759
v -49.338 		18.245 		7.809
v -96.166 		30.723 		31.791
v -44.84 		27.963 		9
v -44.889 		27.963 		8.485
v -45.345 		28.344 		8.213
v -98.918 		34.725 		39.13
v -98.866 		34.725 		39.264
v -49.61 		18.245 		7.315
v -98.809 		34.725 		39.396
v -45.421 		28.534 		8.788
v -98.745 		34.725 		39.525
v -110.499 		17.997 		0.509
v -98.677 		34.725 		39.651
v -98.602 		34.725 		39.774
v -98.523 		34.725 		39.894
v -109.91 		17.356 		0.918
v -98.439 		34.725 		40.01
v -50.525 		18.245 		6.446
v -110.223 		17.737 		0.619
v -49.63 		18.024 		6.928
v -98.349 		34.725 		40.122
v -110.152 		16.528 		1.77
v -99.115 		34.725 		38.001
v -49.97 		18.245 		6.88
v -99.112 		34.725 		38.145
v -49.33 		17.581 		6.594
v -99.103 		34.725 		38.289
v -99.087 		34.725 		38.432
v -93.321 		30.723 		32.667
v -99.066 		34.725 		38.574
v -99.038 		34.725 		38.716
v -93.386 		30.723 		32.341
v -93.493 		30.723 		32.025
v -99.004 		34.725 		38.855
v -96.501 		30.723 		30.541
v -96.816 		30.723 		30.648
v -99.115 		34.725 		36.501
v -95.843 		30.723 		30.454
v -92.565 		34.725 		36.501
v -96.175 		30.723 		30.476
v -51.031 		18.245 		6.197
v -94.294 		30.723 		30.98
v -94.571 		30.723 		30.795
v -111.434 		19.182 		0.642
v -94.869 		30.723 		30.648
v -44.906 		23.737 		8.392
v -95.184 		30.723 		30.541
v -44.84 		23.737 		9
v -112.552 		19.006 		1.77
v -95.511 		30.723 		30.476
v -93.64 		30.723 		31.727
v -92.877 		35.031 		27.778
v -93.825 		30.723 		31.45
v -94.044 		30.723 		31.199
v -111.42 		18.717 		0.752
v -41.902 		16.481 		64.23
v -97.115 		30.723 		30.795
v -97.391 		30.723 		30.98
v -97.641 		30.723 		31.199
v -97.861 		30.723 		31.45
v -98.046 		30.723 		31.727
v -98.193 		30.723 		32.025
v -48.372 		22.975 		8.453
v -98.3 		30.723 		32.341
v -110.802 		18.431 		0.376
v -112.343 		18.309 		1.77
v -48.328 		22.975 		9
v -45.602 		22.975 		65.238
v -46.642 		22.975 		65.162
v -47.228 		22.975 		64.919
v -47.301 		22.689 		65.212
v -45.678 		22.975 		8.448
v -47.723 		22.975 		64.52
v -45.245 		23.404 		8.396
v -48.085 		22.975 		63.999
v -48.481 		22.594 		64.052
v -51.575 		18.245 		6.049
v -45.602 		22.975 		9
v -111.229 		17.939 		1.018
v -52.09 		18.245 		6
v -97.082 		34.725 		32.836
v -97.093 		34.725 		33
v -111.318 		17.503 		1.394
v -97.082 		34.725 		33.163
v -97.05 		34.725 		33.324
v -49.143 		22.213 		8.438
v -96.998 		34.725 		33.479
v -96.925 		34.725 		33.625
v -96.834 		34.725 		33.761
v -50.786 		17.526 		5.519
v -96.727 		34.725 		33.885
v -45.221 		23.356 		64.857
v -96.604 		34.725 		33.992
v -111.606 		17.259 		1.77
v -96.468 		34.725 		34.083
v -49.376 		17.028 		5.775
v -96.321 		34.725 		34.156
v -96.166 		34.725 		34.208
v -96.006 		34.725 		34.24
v -95.843 		34.725 		34.251
v -95.68 		34.725 		34.24
v -95.519 		34.725 		34.208
v -95.364 		34.725 		34.156
v -94.603 		34.725 		32.836
v -94.593 		34.725 		33
v -48.069 		22.213 		65.245
v -95.218 		34.725 		34.083
v -93.185 		35.349 		27.921
v -48.459 		22.213 		64.838
v -95.082 		34.725 		33.992
v -94.959 		34.725 		33.885
v -94.851 		34.725 		33.761
v -94.76 		34.725 		33.625
v -48.671 		22.213 		64.526
v -94.688 		34.725 		33.479
v -48.842 		22.213 		64.191
v -94.635 		34.725 		33.324
v -94.603 		34.725 		33.163
v -110.553 		32.98 		65.646
v -109.884 		33.263 		65.657
v -49.011 		22.213 		63.653
v -110.823 		16.744 		1.77
v -111.187 		32.248 		65.546
v -110.888 		32.634 		65.646
v -104.799 		18.245 		65.89
v -98.365 		28.725 		32.667
v -104.272 		18.245 		65.69
v -48.328 		22.975 		63
v -48.597 		22.689 		63.272
v -98.365 		30.723 		32.667
v -49.09 		22.213 		63
v -105.496 		22.213 		65.997
v -104.188 		22.213 		65.648
v -104.982 		22.213 		65.934
v -46.662 		17.111 		64.774
v -46.596 		17.758 		65.46
v -110.069 		18.059 		65.735
v -48.21 		18.245 		65.12
v -48.459 		18.245 		64.838
v -47.675 		17.891 		65.116
v -48.671 		18.245 		64.526
v -47.184 		17.725 		65.221
v -47.772 		18.245 		65.475
v -110.478 		33.291 		0.575
v -110.075 		33.92 		1.029
v -109.872 		34.71 		1.77
v -110.425 		34.599 		1.77
v -47.981 		17.404 		64.039
v -48.273 		17.67 		64.038
v -48.906 		18.245 		64.014
v -48.488 		17.891 		64.118
v -111.307 		33.103 		0.973
v -111.316 		33.609 		1.328
v -110.951 		34.397 		1.77
v -111.699 		33.005 		1.239
v -112.166 		33.248 		1.77
v -111.806 		33.741 		1.77
v -109.59 		34.725 		64.23
v -47.649 		17.166 		64.113
v -55.198 		35.525 		40.416
v -54.991 		35.525 		40.35
v -54.89 		35.525 		40.311
v -54.791 		35.525 		40.267
v -54.599 		35.525 		40.166
v -54.417 		35.525 		40.049
v -54.245 		35.525 		39.916
v -54.085 		35.525 		39.769
v -54.011 		35.525 		39.69
v -53.871 		35.525 		39.523
v -53.747 		35.525 		39.345
v -53.639 		35.525 		39.156
v -53.591 		35.525 		39.058
v -56.79 		35.525 		40.311
v -56.586 		35.525 		40.386
v -56.377 		35.525 		40.442
v -56.271 		35.525 		40.463
v -56.056 		35.525 		40.492
v -55.84 		35.525 		40.501
v -55.732 		35.525 		40.499
v -55.516 		35.525 		40.48
v -55.303 		35.525 		40.442
v -57.263 		35.525 		40.049
v -57.173 		35.525 		40.11
v -56.986 		35.525 		40.219
v -53.417 		35.525 		38.542
v -53.443 		35.525 		38.648
v -53.38 		35.525 		38.328
v -53.396 		35.525 		38.435
v -53.508 		35.525 		38.856
v -53.473 		35.525 		38.753
v -53.361 		35.525 		38.11
v -53.359 		35.525 		38.001
v -53.359 		35.525 		37.301
v -58.089 		35.525 		39.058
v -57.989 		35.525 		39.251
v -57.933 		35.525 		39.345
v -57.873 		35.525 		39.435
v -57.741 		35.525 		39.608
v -57.595 		35.525 		39.769
v -57.435 		35.525 		39.916
v -58.3 		35.525 		38.328
v -58.284 		35.525 		38.435
v -58.263 		35.525 		38.542
v -58.237 		35.525 		38.648
v -58.321 		35.525 		37.301
v -58.321 		35.525 		38.001
v -58.319 		35.525 		38.11
v -58.207 		35.525 		38.753
v -58.172 		35.525 		38.856
v -58.321 		35.525 		30.298
v -96.816 		28.725 		35.352
v -96.501 		28.725 		35.459
v -96.175 		28.725 		35.524
v -95.843 		28.725 		35.546
v -95.511 		28.725 		35.524
v -95.184 		28.725 		35.459
v -94.869 		28.725 		35.352
v -94.571 		28.725 		35.205
v -94.294 		28.725 		35.02
v -94.044 		28.725 		34.8
v -93.825 		28.725 		34.55
v -93.64 		28.725 		34.273
v -93.493 		28.725 		33.974
v -93.386 		28.725 		33.659
v -93.321 		28.725 		33.332
v -93.299 		28.725 		33
v -98.3 		28.725 		33.659
v -98.193 		28.725 		33.974
v -98.046 		28.725 		34.273
v -97.861 		28.725 		34.55
v -97.641 		28.725 		34.8
v -97.391 		28.725 		35.02
v -97.115 		28.725 		35.205
v -97.082 		30.723 		32.836
v -97.093 		30.723 		33
v -97.082 		30.723 		33.163
v -97.05 		30.723 		33.324
v -96.998 		30.723 		33.479
v -96.925 		30.723 		33.625
v -96.834 		30.723 		33.761
v -96.727 		30.723 		33.885
v -96.604 		30.723 		33.992
v -96.468 		30.723 		34.083
v -96.321 		30.723 		34.156
v -96.166 		30.723 		34.208
v -96.006 		30.723 		34.24
v -95.843 		30.723 		34.251
v -95.68 		30.723 		34.24
v -95.519 		30.723 		34.208
v -95.364 		30.723 		34.156
v -94.603 		30.723 		32.836
v -94.593 		30.723 		33
v -95.218 		30.723 		34.083
v -95.082 		30.723 		33.992
v -94.959 		30.723 		33.885
v -94.851 		30.723 		33.761
v -94.76 		30.723 		33.625
v -94.688 		30.723 		33.479
v -94.635 		30.723 		33.324
v -94.603 		30.723 		33.163
v -96.816 		30.723 		35.352
v -96.501 		30.723 		35.459
v -96.175 		30.723 		35.524
v -95.843 		30.723 		35.546
v -95.511 		30.723 		35.524
v -95.184 		30.723 		35.459
v -94.869 		30.723 		35.352
v -94.571 		30.723 		35.205
v -94.294 		30.723 		35.02
v -94.044 		30.723 		34.8
v -93.825 		30.723 		34.55
v -93.64 		30.723 		34.273
v -93.493 		30.723 		33.974
v -93.386 		30.723 		33.659
v -93.321 		30.723 		33.332
v -93.299 		30.723 		33
v -98.3 		30.723 		33.659
v -98.193 		30.723 		33.974
v -98.046 		30.723 		34.273
v -97.861 		30.723 		34.55
v -97.641 		30.723 		34.8
v -97.391 		30.723 		35.02
v -97.115 		30.723 		35.205
v -110.012 		34.691 		64.23
v -110.56 		34.559 		64.23
v -110.341 		33.757 		65.06
v -109.939 		33.75 		65.17
v -109.912 		34.171 		64.761
v -109.836 		34.537 		64.407
v -111.113 		34.301 		64.23
v -111.573 		33.974 		64.23
v -112.07 		33.41 		64.23
v -111.481 		33.312 		64.761
v -110.743 		33.225 		65.336
v -111.318 		33.697 		64.606
v -110.897 		33.548 		64.982
v -106.078 		28.725 		65.238
v -106.84 		27.963 		65.238
v -112.424 		32.695 		64.23
v -112.552 		32.194 		64.23
v -111.789 		32.733 		64.805
v -111.126 		32.753 		65.381
v -103.628 		22.975 		64.049
v -103.953 		22.975 		64.524
v -104.449 		22.975 		64.923
v -104.191 		22.689 		65.098
v -105.193 		22.975 		65.201
v -104.886 		22.689 		65.422
v -106.078 		22.975 		65.238
v -106.459 		23.356 		64.857
v -102.643 		22.213 		63.562
v -102.988 		22.213 		64.484
v -103.312 		22.213 		64.946
v -103.717 		22.213 		65.338
v -103.352 		22.975 		63
v -102.59 		22.213 		63
v -103.399 		22.975 		63.436
v -103.958 		17.758 		64.906
v -103.374 		18.245 		65.016
v -103.278 		18.068 		64.619
v -104.237 		16.873 		63.895
v -103.316 		17.758 		64.06
v -103.482 		17.493 		63.767
v -102.838 		18.245 		64.191
v -103.044 		17.98 		63.992
v -102.664 		18.245 		63.654
v -103.944 		17.227 		64.101
v -103.633 		17.714 		64.502
# 1280 vertices

g group_1_11909273

usemtl color_11909273
s 0

f 120 	121 	122
f 126 	127 	128
f 124 	119 	149
f 129 	131 	132
f 120 	122 	135
f 119 	143 	149
f 133 	1220 	134
f 141 	142 	139
f 134 	132 	133
f 133 	132 	131
f 144 	147 	190
f 129 	132 	130
f 1219 	133 	131
f 130 	151 	154
f 157 	158 	1391
f 152 	154 	151
f 127 	150 	130
f 1071 	126 	951
f 164 	127 	126
f 146 	176 	159
f 164 	126 	876
f 166 	157 	155
f 164 	183 	127
f 166 	155 	161
f 164 	168 	183
f 165 	146 	159
f 169 	425 	171
f 146 	165 	145
f 171 	172 	169
f 159 	253 	259
f 184 	174 	173
f 176 	253 	159
f 175 	183 	168
f 159 	259 	1063
f 183 	150 	127
f 167 	183 	175
f 177 	178 	136
f 187 	183 	167
f 180 	136 	178
f 151 	130 	150
f 144 	188 	137
f 188 	186 	137
f 184 	173 	172
f 144 	190 	188
f 994 	179 	174
f 568 	571 	181
f 192 	147 	148
f 193 	194 	195
f 191 	189 	196
f 197 	195 	194
f 147 	192 	190
f 199 	192 	148
f 994 	174 	184
f 200 	183 	187
f 198 	189 	191
f 185 	183 	200
f 153 	199 	148
f 932 	198 	191
f 153 	201 	199
f 156 	203 	201
f 157 	141 	139
f 153 	156 	201
f 416 	214 	195
f 202 	197 	194
f 932 	934 	198
f 180 	1280 	136
f 139 	140 	157
f 206 	205 	471
f 207 	206 	471
f 209 	198 	940
f 940 	198 	939
f 208 	207 	471
f 196 	228 	232
f 210 	208 	471
f 202 	194 	193
f 196 	189 	228
f 211 	210 	471
f 212 	211 	471
f 203 	156 	160
f 214 	157 	195
f 213 	212 	471
f 204 	203 	160
f 216 	204 	162
f 140 	195 	157
f 195 	140 	570
f 263 	219 	396
f 942 	209 	940
f 217 	396 	218
f 942 	257 	209
f 162 	204 	160
f 216 	162 	163
f 225 	263 	227
f 235 	216 	163
f 235 	163 	238
f 237 	263 	239
f 230 	243 	416
f 240 	241 	238
f 471 	205 	239
f 241 	235 	238
f 221 	226 	416
f 230 	416 	226
f 223 	221 	416
f 242 	244 	240
f 229 	227 	263
f 225 	222 	263
f 222 	220 	263
f 220 	219 	263
f 218 	396 	219
f 228 	214 	245
f 244 	241 	240
f 247 	244 	242
f 248 	247 	242
f 171 	184 	172
f 229 	263 	231
f 172 	170 	169
f 250 	234 	224
f 173 	174 	170
f 233 	234 	250
f 173 	170 	172
f 425 	184 	171
f 251 	379 	540
f 378 	374 	540
f 359 	1052 	362
f 540 	362 	1052
f 1052 	334 	329
f 324 	316 	1052
f 314 	311 	1052
f 309 	304 	1052
f 299 	441 	300
f 248 	249 	247
f 248 	255 	249
f 231 	263 	236
f 233 	250 	124
f 253 	209 	257
f 269 	387 	274
f 260 	388 	269
f 257 	259 	253
f 256 	264 	276
f 197 	202 	268
f 271 	268 	202
f 256 	272 	255
f 272 	249 	255
f 274 	387 	278
f 256 	276 	272
f 276 	264 	277
f 202 	577 	271
f 127 	130 	132
f 278 	381 	279
f 271 	280 	281
f 277 	266 	282
f 279 	449 	283
f 266 	277 	264
f 284 	282 	266
f 195 	197 	416
f 284 	285 	282
f 284 	287 	285
f 287 	289 	285
f 289 	291 	292
f 287 	291 	289
f 291 	294 	292
f 293 	445 	299
f 262 	393 	260
f 294 	296 	292
f 294 	298 	296
f 283 	448 	293
f 309 	1052 	311
f 314 	1052 	316
f 298 	302 	296
f 324 	1052 	329
f 298 	303 	302
f 300 	441 	304
f 295 	1075 	1066
f 165 	301 	145
f 305 	306 	303
f 306 	302 	303
f 334 	1052 	350
f 305 	310 	306
f 312 	313 	310
f 1075 	315 	286
f 1075 	295 	315
f 305 	312 	310
f 265 	224 	280
f 312 	320 	313
f 315 	318 	286
f 322 	323 	281
f 325 	914 	321
f 321 	914 	319
f 326 	313 	320
f 315 	295 	307
f 320 	328 	326
f 328 	331 	326
f 308 	315 	307
f 328 	333 	331
f 280 	322 	281
f 333 	335 	331
f 280 	234 	322
f 335 	336 	331
f 335 	337 	336
f 308 	307 	338
f 337 	339 	336
f 914 	325 	327
f 330 	914 	327
f 332 	914 	330
f 342 	344 	914
f 340 	339 	337
f 261 	307 	295
f 340 	343 	339
f 297 	341 	288
f 224 	234 	280
f 345 	343 	340
f 267 	338 	307
f 345 	347 	343
f 346 	348 	914
f 344 	346 	914
f 224 	265 	576
f 267 	307 	261
f 258 	914 	349
f 348 	349 	914
f 338 	267 	270
f 297 	353 	360
f 233 	323 	322
f 350 	1052 	356
f 374 	366 	540
f 234 	233 	322
f 412 	338 	270
f 353 	301 	165
f 342 	914 	332
f 351 	258 	349
f 352 	258 	351
f 354 	258 	352
f 356 	1052 	359
f 357 	258 	354
f 765 	258 	357
f 270 	275 	412
f 165 	360 	353
f 362 	540 	366
f 353 	297 	301
f 319 	914 	317
f 378 	540 	379
f 914 	1367 	317
f 381 	382 	380
f 361 	363 	732
f 363 	364 	732
f 373 	376 	1367
f 376 	317 	1367
f 251 	540 	383
f 381 	384 	382
f 384 	385 	382
f 384 	387 	385
f 388 	389 	387
f 389 	385 	387
f 610 	956 	390
f 388 	391 	389
f 388 	393 	391
f 471 	239 	263
f 393 	394 	391
f 393 	396 	394
f 397 	398 	396
f 398 	394 	396
f 402 	399 	540
f 397 	368 	398
f 619 	617 	405
f 368 	367 	398
f 630 	308 	338
f 383 	540 	399
f 345 	403 	347
f 338 	631 	630
f 401 	405 	617
f 403 	355 	347
f 355 	406 	358
f 403 	406 	355
f 631 	338 	412
f 411 	414 	621
f 358 	406 	409
f 341 	297 	413
f 297 	360 	413
f 254 	214 	416
f 273 	415 	412
f 236 	263 	237
f 185 	223 	416
f 183 	185 	416
f 243 	246 	416
f 246 	252 	416
f 254 	416 	252
f 412 	275 	273
f 404 	402 	540
f 624 	621 	414
f 583 	624 	417
f 404 	540 	407
f 420 	422 	358
f 421 	584 	417
f 426 	422 	420
f 423 	424 	585
f 358 	409 	420
f 421 	423 	584
f 586 	585 	424
f 984 	430 	444
f 410 	407 	540
f 426 	427 	422
f 426 	431 	427
f 433 	427 	431
f 429 	290 	430
f 435 	433 	431
f 430 	290 	288
f 434 	588 	432
f 435 	437 	433
f 437 	438 	433
f 437 	440 	438
f 441 	442 	440
f 442 	438 	440
f 430 	288 	444
f 390 	386 	458
f 371 	442 	441
f 444 	288 	341
f 441 	445 	371
f 443 	439 	540
f 445 	375 	371
f 446 	540 	447
f 463 	400 	395
f 445 	448 	375
f 454 	377 	159
f 400 	463 	401
f 448 	449 	375
f 169 	170 	492
f 470 	405 	401
f 447 	540 	450
f 449 	380 	375
f 165 	377 	360
f 405 	470 	408
f 377 	165 	159
f 449 	381 	380
f 414 	411 	478
f 454 	159 	1063
f 478 	417 	414
f 377 	454 	1063
f 484 	486 	423
f 424 	423 	486
f 486 	487 	424
f 459 	928 	460
f 457 	1214 	456
f 456 	464 	457
f 464 	468 	457
f 949 	947 	465
f 463 	823 	467
f 823 	474 	470
f 470 	467 	823
f 471 	473 	540
f 473 	531 	540
f 531 	529 	540
f 529 	526 	540
f 523 	540 	524
f 526 	524 	540
f 518 	517 	540
f 514 	540 	517
f 507 	540 	512
f 464 	143 	475
f 443 	540 	446
f 478 	477 	823
f 474 	823 	477
f 482 	143 	464
f 479 	594 	434
f 481 	595 	479
f 475 	468 	464
f 480 	823 	483
f 1226 	1225 	475
f 483 	823 	484
f 588 	587 	432
f 485 	595 	481
f 475 	1225 	468
f 823 	633 	486
f 490 	472 	462
f 494 	598 	488
f 488 	597 	485
f 498 	601 	494
f 497 	516 	637
f 492 	499 	472
f 507 	502 	540
f 540 	495 	455
f 540 	455 	453
f 540 	453 	452
f 452 	450 	540
f 439 	436 	540
f 436 	410 	540
f 495 	540 	502
f 501 	601 	498
f 491 	633 	500
f 505 	501 	516
f 503 	500 	633
f 508 	504 	509
f 506 	503 	633
f 466 	505 	516
f 505 	604 	501
f 466 	605 	505
f 540 	523 	518
f 512 	540 	514
f 476 	492 	493
f 511 	510 	633
f 390 	459 	392
f 476 	499 	492
f 519 	508 	520
f 1136 	323 	233
f 525 	552 	451
f 451 	521 	522
f 451 	522 	543
f 451 	543 	538
f 490 	492 	472
f 519 	933 	508
f 525 	451 	527
f 509 	520 	508
f 408 	474 	411
f 527 	451 	528
f 572 	532 	451
f 528 	451 	530
f 478 	480 	417
f 169 	492 	490
f 480 	483 	417
f 530 	451 	532
f 519 	520 	533
f 484 	423 	421
f 451 	538 	536
f 428 	424 	487
f 428 	487 	432
f 534 	451 	536
f 434 	500 	479
f 469 	490 	462
f 519 	533 	539
f 390 	458 	459
f 460 	392 	459
f 565 	546 	545
f 551 	544 	546
f 395 	392 	461
f 461 	392 	460
f 550 	551 	546
f 1298 	1367 	1297
f 1300 	1301 	1367
f 395 	461 	463
f 521 	451 	547
f 467 	401 	463
f 546 	554 	549
f 550 	546 	549
f 545 	546 	544
f 1367 	146 	535
f 535 	537 	1367
f 537 	1297 	1367
f 401 	467 	470
f 541 	542 	548
f 547 	451 	552
f 408 	470 	474
f 553 	549 	554
f 477 	411 	474
f 411 	477 	478
f 513 	511 	633
f 510 	506 	633
f 633 	491 	489
f 633 	489 	487
f 484 	823 	486
f 480 	478 	823
f 487 	486 	633
f 519 	539 	555
f 558 	537 	535
f 558 	535 	556
f 541 	548 	916
f 561 	554 	560
f 559 	560 	554
f 553 	554 	561
f 557 	559 	554
f 557 	554 	563
f 558 	1297 	537
f 541 	562 	542
f 421 	417 	483
f 484 	421 	483
f 564 	568 	566
f 565 	566 	568
f 489 	432 	487
f 489 	491 	432
f 434 	432 	491
f 573 	572 	451
f 491 	500 	434
f 546 	565 	568
f 564 	567 	568
f 569 	568 	567
f 574 	571 	569
f 496 	465 	466
f 496 	466 	497
f 568 	569 	571
f 571 	578 	570
f 479 	500 	481
f 503 	481 	500
f 577 	571 	576
f 575 	576 	571
f 578 	571 	577
f 574 	575 	571
f 506 	485 	481
f 506 	481 	503
f 519 	555 	579
f 485 	506 	488
f 510 	488 	506
f 545 	544 	786
f 511 	494 	488
f 511 	488 	510
f 169 	490 	582
f 582 	418 	169
f 494 	511 	498
f 513 	498 	511
f 515 	501 	498
f 515 	498 	513
f 501 	515 	516
f 490 	469 	582
f 581 	582 	469
f 497 	466 	516
f 419 	169 	418
f 425 	169 	419
f 550 	580 	551
f 584 	319 	317
f 584 	317 	583
f 585 	321 	319
f 585 	319 	584
f 586 	325 	321
f 586 	321 	585
f 579 	429 	519
f 587 	327 	325
f 587 	325 	586
f 462 	472 	541
f 588 	327 	587
f 550 	549 	580
f 588 	330 	327
f 589 	332 	330
f 589 	330 	588
f 562 	472 	499
f 418 	582 	593
f 472 	592 	541
f 586 	424 	587
f 583 	417 	584
f 414 	417 	624
f 585 	584 	423
f 428 	587 	424
f 432 	587 	428
f 592 	562 	541
f 482 	464 	582
f 1042 	554 	546
f 476 	562 	499
f 588 	434 	589
f 332 	589 	342
f 594 	342 	589
f 595 	344 	342
f 595 	342 	594
f 582 	464 	593
f 456 	593 	464
f 596 	346 	344
f 596 	344 	595
f 599 	482 	582
f 346 	596 	597
f 346 	597 	348
f 348 	597 	598
f 348 	598 	349
f 592 	472 	562
f 349 	598 	601
f 349 	601 	351
f 351 	601 	602
f 351 	602 	352
f 603 	607 	600
f 599 	600 	607
f 607 	482 	599
f 352 	602 	604
f 352 	604 	354
f 354 	604 	605
f 354 	605 	357
f 357 	605 	765
f 603 	606 	607
f 601 	501 	602
f 602 	501 	604
f 598 	494 	601
f 597 	488 	598
f 596 	485 	597
f 595 	485 	596
f 594 	479 	595
f 589 	434 	594
f 605 	604 	505
f 466 	465 	605
f 613 	363 	361
f 613 	361 	610
f 614 	364 	363
f 614 	363 	613
f 615 	365 	364
f 615 	364 	614
f 609 	573 	451
f 559 	612 	560
f 617 	369 	365
f 617 	365 	615
f 616 	609 	451
f 619 	370 	369
f 619 	369 	617
f 612 	1126 	1061
f 620 	372 	370
f 620 	370 	619
f 621 	373 	372
f 621 	372 	620
f 559 	557 	612
f 623 	451 	626
f 373 	621 	376
f 624 	376 	621
f 780 	732 	816
f 376 	624 	583
f 376 	583 	317
f 615 	614 	400
f 395 	400 	614
f 614 	613 	395
f 392 	395 	613
f 390 	392 	613
f 610 	390 	613
f 628 	700 	318
f 628 	318 	315
f 400 	401 	617
f 617 	615 	400
f 620 	619 	408
f 405 	408 	619
f 621 	620 	408
f 408 	411 	621
f 628 	315 	630
f 630 	315 	308
f 516 	515 	637
f 633 	637 	515
f 513 	633 	515
f 170 	608 	492
f 634 	687 	637
f 687 	686 	637
f 686 	677 	637
f 675 	451 	677
f 451 	637 	677
f 662 	451 	675
f 660 	659 	451
f 659 	652 	451
f 650 	646 	451
f 611 	492 	608
f 618 	616 	451
f 451 	1048 	637
f 1068 	1073 	258
f 618 	451 	622
f 554 	638 	563
f 630 	631 	625
f 646 	640 	451
f 629 	451 	636
f 640 	636 	451
f 644 	708 	643
f 642 	643 	708
f 641 	642 	708
f 645 	708 	644
f 1138 	1139 	638
f 630 	625 	655
f 662 	660 	451
f 650 	451 	652
f 654 	708 	653
f 648 	708 	654
f 647 	708 	648
f 651 	708 	647
f 649 	708 	651
f 656 	708 	649
f 658 	710 	657
f 657 	708 	656
f 628 	630 	661
f 667 	708 	666
f 665 	666 	708
f 664 	665 	708
f 668 	708 	667
f 669 	708 	668
f 670 	708 	669
f 671 	708 	670
f 672 	708 	671
f 673 	708 	672
f 674 	708 	673
f 639 	641 	708
f 674 	639 	708
f 688 	689 	664
f 708 	688 	664
f 655 	661 	630
f 655 	676 	661
f 680 	681 	679
f 681 	682 	679
f 682 	683 	679
f 678 	679 	683
f 684 	691 	683
f 676 	655 	685
f 663 	664 	691
f 684 	663 	691
f 692 	683 	691
f 693 	683 	692
f 694 	683 	693
f 678 	683 	694
f 690 	691 	664
f 689 	690 	664
f 623 	622 	451
f 627 	626 	451
f 697 	635 	638
f 635 	563 	638
f 832 	699 	703
f 627 	451 	629
f 632 	635 	697
f 696 	657 	695
f 704 	657 	696
f 705 	657 	704
f 707 	657 	705
f 708 	657 	707
f 645 	653 	708
f 709 	710 	658
f 698 	632 	697
f 711 	657 	710
f 695 	657 	711
f 702 	712 	1133
f 717 	713 	715
f 179 	722 	850
f 715 	713 	714
f 714 	713 	716
f 720 	778 	719
f 565 	545 	451
f 832 	703 	865
f 702 	1133 	723
f 706 	702 	723
f 625 	723 	1133
f 718 	713 	717
f 725 	778 	718
f 719 	778 	725
f 726 	778 	720
f 727 	778 	726
f 721 	778 	727
f 734 	778 	733
f 730 	778 	729
f 736 	451 	742
f 733 	778 	728
f 729 	778 	734
f 735 	778 	730
f 451 	534 	742
f 703 	1024 	865
f 731 	738 	786
f 544 	731 	786
f 731 	544 	551
f 724 	716 	713
f 743 	778 	735
f 744 	778 	743
f 728 	778 	721
f 739 	778 	744
f 737 	778 	739
f 745 	778 	737
f 746 	778 	745
f 747 	778 	746
f 748 	778 	747
f 749 	778 	748
f 750 	778 	749
f 741 	778 	750
f 740 	778 	741
f 751 	778 	740
f 887 	722 	731
f 850 	722 	887
f 752 	778 	768
f 770 	778 	751
f 753 	778 	752
f 754 	778 	753
f 755 	778 	754
f 756 	778 	755
f 757 	778 	756
f 758 	778 	757
f 776 	777 	758
f 763 	778 	762
f 827 	824 	723
f 539 	590 	591
f 786 	761 	781
f 762 	778 	759
f 759 	778 	760
f 767 	778 	763
f 768 	778 	767
f 771 	778 	770
f 773 	778 	772
f 772 	778 	771
f 760 	778 	764
f 774 	778 	773
f 764 	778 	774
f 766 	781 	761
f 815 	451 	736
f 777 	778 	758
f 713 	718 	778
f 451 	766 	1048
f 775 	795 	258
f 798 	1068 	795
f 769 	775 	258
f 765 	769 	258
f 781 	782 	451
f 786 	781 	451
f 783 	784 	732
f 782 	766 	451
f 782 	781 	766
f 888 	885 	840
f 787 	1068 	792
f 545 	786 	451
f 892 	888 	835
f 738 	761 	786
f 837 	835 	888
f 840 	837 	888
f 802 	1068 	800
f 806 	1068 	804
f 625 	801 	723
f 843 	840 	885
f 1068 	258 	795
f 798 	800 	1068
f 802 	804 	1068
f 807 	1068 	806
f 504 	703 	509
f 699 	509 	703
f 812 	817 	669
f 816 	732 	814
f 699 	590 	533
f 509 	699 	520
f 783 	732 	780
f 631 	412 	819
f 533 	520 	699
f 813 	814 	732
f 461 	823 	463
f 461 	460 	823
f 458 	928 	459
f 533 	590 	539
f 811 	732 	820
f 820 	732 	791
f 827 	412 	415
f 863 	861 	909
f 823 	925 	822
f 824 	706 	723
f 827 	819 	412
f 835 	830 	897
f 1068 	807 	792
f 1068 	787 	788
f 1068 	788 	789
f 732 	1068 	791
f 813 	732 	811
f 861 	858 	909
f 590 	832 	226
f 858 	856 	913
f 827 	723 	819
f 913 	909 	858
f 226 	902 	590
f 819 	625 	631
f 819 	801 	625
f 591 	902 	826
f 723 	801 	819
f 909 	905 	863
f 170 	839 	608
f 955 	954 	848
f 905 	897 	863
f 845 	684 	841
f 830 	863 	897
f 848 	852 	955
f 170 	174 	839
f 852 	386 	955
f 429 	1050 	415
f 897 	892 	835
f 822 	924 	853
f 956 	955 	386
f 832 	590 	699
f 827 	415 	824
f 853 	924 	855
f 856 	855 	921
f 852 	458 	386
f 924 	921 	855
f 386 	390 	956
f 921 	919 	856
f 919 	913 	856
f 958 	964 	867
f 864 	867 	964
f 867 	868 	958
f 167 	901 	1096
f 868 	870 	958
f 866 	869 	639
f 872 	641 	869
f 641 	639 	869
f 168 	164 	876
f 873 	871 	928
f 872 	642 	641
f 875 	873 	928
f 872 	879 	642
f 877 	875 	928
f 878 	168 	876
f 879 	643 	642
f 881 	877 	928
f 901 	167 	175
f 879 	883 	643
f 881 	928 	882
f 555 	539 	826
f 883 	885 	643
f 580 	886 	551
f 175 	168 	878
f 880 	961 	874
f 885 	644 	643
f 882 	928 	884
f 884 	928 	458
f 539 	591 	826
f 886 	887 	551
f 831 	880 	871
f 885 	888 	644
f 175 	878 	901
f 579 	555 	825
f 831 	871 	834
f 888 	645 	644
f 825 	555 	826
f 888 	892 	645
f 890 	889 	135
f 891 	890 	135
f 857 	878 	876
f 731 	551 	887
f 894 	850 	887
f 895 	135 	896
f 126 	857 	876
f 846 	881 	848
f 899 	839 	850
f 167 	1096 	1166
f 135 	928 	896
f 928 	871 	898
f 894 	899 	850
f 1096 	857 	1090
f 878 	857 	901
f 892 	653 	645
f 902 	825 	826
f 897 	653 	892
f 496 	497 	637
f 902 	223 	825
f 886 	894 	887
f 902 	226 	221
f 905 	654 	897
f 902 	221 	223
f 886 	580 	894
f 891 	867 	864
f 654 	653 	897
f 637 	135 	903
f 580 	549 	608
f 891 	893 	867
f 868 	867 	893
f 857 	1096 	901
f 905 	648 	654
f 909 	647 	648
f 893 	895 	868
f 591 	590 	902
f 608 	894 	580
f 870 	895 	874
f 608 	899 	894
f 908 	135 	910
f 889 	910 	135
f 608 	839 	899
f 905 	909 	648
f 896 	880 	874
f 911 	912 	582
f 909 	913 	647
f 582 	581 	911
f 907 	906 	135
f 906 	904 	135
f 904 	903 	135
f 900 	637 	903
f 900 	496 	637
f 832 	230 	226
f 915 	546 	914
f 651 	647 	913
f 258 	915 	914
f 918 	465 	496
f 919 	649 	651
f 908 	907 	135
f 633 	634 	637
f 823 	460 	928
f 865 	230 	832
f 1042 	546 	915
f 913 	919 	651
f 928 	368 	1109
f 865 	1028 	230
f 919 	921 	649
f 950 	949 	918
f 920 	950 	918
f 656 	649 	921
f 911 	916 	912
f 923 	922 	906
f 921 	924 	656
f 893 	135 	895
f 923 	966 	922
f 230 	1028 	243
f 924 	925 	656
f 926 	923 	906
f 925 	657 	656
f 185 	1150 	223
f 925 	658 	657
f 922 	950 	920
f 860 	864 	973
f 929 	927 	910
f 917 	916 	548
f 927 	968 	926
f 974 	973 	864
f 684 	845 	663
f 910 	860 	929
f 845 	779 	663
f 581 	930 	911
f 964 	974 	864
f 912 	183 	582
f 664 	663 	779
f 664 	785 	665
f 664 	779 	785
f 785 	790 	665
f 881 	846 	842
f 508 	933 	932
f 790 	666 	665
f 882 	848 	881
f 852 	848 	882
f 790 	794 	666
f 794 	797 	666
f 797 	667 	666
f 388 	260 	393
f 384 	278 	387
f 440 	304 	441
f 437 	435 	304
f 797 	805 	667
f 938 	198 	934
f 933 	934 	932
f 805 	809 	667
f 870 	868 	895
f 809 	668 	667
f 896 	874 	895
f 809 	812 	668
f 240 	238 	1052
f 637 	1052 	163
f 162 	160 	637
f 156 	153 	637
f 148 	147 	637
f 812 	669 	668
f 120 	135 	637
f 541 	916 	911
f 871 	873 	834
f 818 	670 	817
f 893 	891 	135
f 838 	834 	875
f 873 	875 	834
f 549 	553 	608
f 611 	608 	553
f 898 	896 	928
f 670 	669 	817
f 935 	936 	611
f 875 	877 	838
f 842 	838 	877
f 818 	821 	670
f 881 	842 	877
f 671 	670 	821
f 939 	198 	938
f 884 	852 	882
f 120 	637 	121
f 821 	941 	671
f 884 	458 	852
f 941 	672 	671
f 541 	911 	930
f 860 	889 	864
f 890 	864 	889
f 916 	917 	183
f 941 	851 	672
f 931 	183 	917
f 864 	890 	891
f 851 	854 	672
f 937 	611 	936
f 121 	637 	137
f 916 	183 	912
f 673 	672 	854
f 581 	462 	541
f 581 	469 	462
f 553 	935 	611
f 854 	859 	673
f 943 	944 	935
f 898 	880 	896
f 581 	541 	930
f 859 	862 	673
f 137 	637 	144
f 880 	898 	871
f 866 	674 	862
f 496 	900 	918
f 674 	673 	862
f 944 	936 	935
f 144 	637 	147
f 242 	240 	1052
f 903 	920 	900
f 918 	900 	920
f 942 	259 	257
f 904 	922 	920
f 904 	920 	903
f 866 	639 	674
f 922 	904 	906
f 943 	935 	553
f 148 	637 	153
f 942 	1063 	259
f 907 	926 	906
f 926 	907 	927
f 908 	927 	907
f 927 	908 	910
f 939 	988 	942
f 860 	910 	889
f 540 	1052 	418
f 765 	605 	947
f 765 	947 	949
f 765 	949 	769
f 769 	949 	950
f 769 	950 	775
f 126 	128 	951
f 986 	936 	944
f 953 	678 	952
f 465 	918 	949
f 605 	465 	947
f 950 	922 	965
f 954 	780 	981
f 953 	679 	678
f 955 	783 	780
f 955 	780 	954
f 963 	360 	377
f 956 	784 	783
f 956 	783 	955
f 953 	957 	679
f 610 	361 	784
f 610 	784 	956
f 957 	680 	679
f 846 	848 	981
f 842 	846 	981
f 981 	979 	842
f 951 	128 	125
f 828 	680 	957
f 829 	681 	828
f 940 	939 	942
f 787 	958 	959
f 787 	959 	788
f 788 	959 	960
f 788 	960 	789
f 681 	680 	828
f 789 	960 	961
f 789 	961 	791
f 829 	833 	681
f 792 	964 	958
f 792 	958 	787
f 561 	943 	553
f 950 	965 	795
f 950 	795 	775
f 795 	965 	966
f 795 	966 	798
f 156 	637 	160
f 798 	966 	968
f 798 	968 	800
f 962 	942 	988
f 561 	560 	943
f 800 	968 	970
f 800 	970 	802
f 967 	969 	971
f 802 	970 	972
f 802 	972 	804
f 804 	972 	973
f 804 	973 	806
f 806 	973 	974
f 806 	974 	807
f 988 	939 	938
f 807 	974 	964
f 807 	964 	792
f 162 	637 	163
f 971 	982 	967
f 992 	360 	963
f 1006 	1007 	732
f 959 	958 	870
f 874 	960 	870
f 834 	977 	831
f 831 	961 	880
f 838 	978 	834
f 979 	978 	842
f 960 	874 	961
f 959 	870 	960
f 413 	360 	992
f 975 	976 	943
f 973 	972 	860
f 970 	929 	972
f 968 	927 	970
f 966 	923 	968
f 929 	970 	927
f 965 	922 	966
f 926 	968 	923
f 929 	860 	972
f 341 	999 	1001
f 983 	943 	976
f 811 	977 	978
f 811 	978 	813
f 979 	814 	813
f 979 	813 	978
f 981 	816 	814
f 981 	814 	979
f 560 	975 	943
f 816 	981 	780
f 943 	983 	944
f 961 	985 	820
f 961 	820 	791
f 820 	985 	977
f 820 	977 	811
f 977 	834 	978
f 838 	842 	978
f 954 	981 	848
f 986 	937 	936
f 985 	831 	977
f 961 	831 	985
f 444 	341 	984
f 682 	681 	833
f 833 	836 	682
f 841 	683 	836
f 683 	682 	836
f 1000 	731 	997
f 841 	684 	683
f 975 	1054 	989
f 989 	987 	975
f 238 	163 	1052
f 984 	988 	991
f 248 	242 	1052
f 980 	1045 	982
f 255 	248 	1052
f 425 	993 	184
f 256 	255 	1052
f 287 	284 	1052
f 993 	994 	184
f 999 	341 	413
f 341 	1001 	984
f 264 	256 	1052
f 962 	988 	992
f 992 	963 	962
f 984 	1001 	988
f 991 	988 	938
f 980 	982 	995
f 413 	992 	999
f 987 	976 	975
f 266 	264 	1052
f 999 	992 	988
f 983 	987 	998
f 1001 	999 	988
f 998 	986 	983
f 284 	266 	1052
f 294 	1052 	298
f 934 	984 	991
f 991 	938 	934
f 287 	1052 	291
f 976 	987 	983
f 1005 	191 	196
f 1005 	932 	191
f 983 	986 	944
f 291 	1052 	294
f 995 	1003 	980
f 504 	1005 	196
f 987 	1058 	990
f 508 	1005 	504
f 993 	1038 	996
f 1007 	1021 	732
f 508 	932 	1005
f 1000 	997 	996
f 298 	1052 	303
f 303 	1052 	305
f 980 	1003 	702
f 706 	1045 	980
f 429 	1011 	1012
f 312 	1052 	320
f 706 	980 	702
f 430 	984 	1011
f 320 	1052 	328
f 1011 	429 	430
f 333 	1052 	335
f 1011 	984 	934
f 328 	1052 	333
f 1012 	1011 	934
f 933 	1012 	934
f 732 	1016 	290
f 933 	519 	1012
f 1019 	1013 	290
f 1012 	519 	429
f 1013 	1014 	290
f 1022 	1023 	732
f 337 	1052 	340
f 1023 	1015 	732
f 997 	994 	996
f 1017 	290 	1016
f 1018 	290 	1017
f 1015 	1016 	732
f 702 	1003 	1156
f 246 	243 	1020
f 997 	722 	994
f 1021 	1022 	732
f 996 	994 	993
f 243 	1028 	1020
f 1003 	1071 	1156
f 1020 	252 	246
f 722 	179 	994
f 995 	1078 	1003
f 146 	290 	1014
f 1010 	146 	1008
f 1008 	146 	1014
f 1296 	1004 	732
f 732 	365 	1294
f 1020 	865 	1024
f 997 	731 	722
f 1026 	146 	1025
f 1025 	146 	1010
f 731 	1000 	1002
f 969 	1047 	1051
f 731 	1002 	738
f 449 	279 	381
f 1002 	1009 	738
f 1027 	146 	1026
f 1029 	146 	1027
f 1032 	146 	1031
f 1018 	1019 	290
f 381 	278 	384
f 1009 	761 	738
f 548 	987 	990
f 1020 	1028 	865
f 766 	761 	1009
f 252 	1020 	1041
f 986 	998 	562
f 387 	269 	388
f 419 	1036 	425
f 562 	476 	986
f 937 	986 	476
f 393 	263 	396
f 1038 	1002 	1000
f 476 	493 	937
f 703 	1037 	1024
f 1034 	1106 	1033
f 611 	937 	493
f 1036 	1038 	993
f 1041 	1020 	1024
f 493 	492 	611
f 1000 	996 	1038
f 1052 	406 	403
f 1052 	403 	345
f 1052 	345 	340
f 337 	335 	1052
f 1037 	1041 	1024
f 431 	1052 	435
f 1009 	1002 	1038
f 406 	1052 	409
f 440 	437 	304
f 1041 	1037 	232
f 409 	1052 	420
f 1045 	1047 	967
f 1132 	1131 	1044
f 1046 	1134 	1044
f 1037 	196 	232
f 969 	967 	1047
f 1036 	993 	425
f 504 	196 	1037
f 420 	1052 	426
f 1009 	1038 	1048
f 703 	504 	1037
f 1045 	967 	982
f 441 	299 	445
f 228 	1041 	232
f 1134 	1132 	1044
f 1046 	1304 	1134
f 426 	1052 	431
f 445 	293 	448
f 1036 	1048 	1038
f 1045 	706 	824
f 1050 	1051 	1047
f 419 	1052 	1048
f 1052 	304 	435
f 1042 	1118 	1162
f 1056 	252 	1041
f 418 	1052 	419
f 1056 	254 	252
f 1036 	419 	1048
f 228 	245 	1041
f 975 	560 	1054
f 1056 	214 	254
f 1053 	1103 	1049
f 560 	612 	1054
f 245 	214 	1056
f 1087 	692 	691
f 1009 	1048 	766
f 1052 	637 	1048
f 946 	693 	945
f 245 	1056 	1041
f 1054 	1058 	989
f 692 	945 	693
f 448 	283 	449
f 1054 	1061 	1058
f 948 	693 	946
f 1112 	1124 	1060
f 850 	174 	179
f 948 	694 	693
f 850 	839 	174
f 952 	694 	948
f 1057 	1123 	1055
f 1115 	1113 	1064
f 678 	694 	952
f 312 	305 	1052
f 915 	258 	1073
f 1065 	1067 	1120
f 1059 	1124 	1057
f 1108 	1120 	1067
f 1063 	942 	962
f 963 	377 	1063
f 962 	963 	1063
f 824 	415 	1045
f 1050 	1047 	415
f 429 	579 	1050
f 1045 	415 	1047
f 1066 	1080 	1068
f 1067 	1069 	1108
f 1069 	1070 	1108
f 1080 	1066 	1074
f 1100 	704 	696
f 261 	295 	1066
f 1071 	857 	126
f 705 	1104 	707
f 1072 	1070 	239
f 789 	791 	1068
f 1066 	1068 	732
f 1061 	1126 	1058
f 1072 	1105 	1070
f 239 	1033 	1072
f 1033 	1106 	1072
f 1074 	1075 	286
f 205 	1033 	239
f 658 	1107 	709
f 1033 	205 	206
f 1033 	206 	1034
f 207 	1035 	206
f 1034 	206 	1035
f 1074 	286 	318
f 208 	1039 	1035
f 208 	1035 	207
f 1039 	208 	1040
f 210 	1040 	208
f 708 	1076 	1077
f 1075 	1074 	1066
f 211 	1043 	1040
f 211 	1040 	210
f 688 	1077 	1079
f 1080 	1074 	1068
f 1043 	211 	1044
f 212 	1044 	211
f 688 	708 	1077
f 1071 	1090 	857
f 213 	1046 	1044
f 213 	1044 	212
f 149 	143 	482
f 1068 	1074 	1073
f 1079 	1081 	688
f 1046 	213 	1304
f 1081 	689 	688
f 1081 	1083 	689
f 1049 	215 	217
f 1049 	217 	1053
f 1083 	1084 	690
f 1042 	915 	1073
f 1053 	217 	1055
f 218 	1055 	217
f 690 	689 	1083
f 1071 	951 	1156
f 219 	1057 	1055
f 219 	1055 	218
f 1084 	1085 	690
f 600 	599 	1086
f 1057 	219 	1059
f 220 	1059 	219
f 1085 	691 	690
f 599 	416 	1086
f 222 	1060 	1059
f 222 	1059 	220
f 1085 	1087 	691
f 1086 	1089 	600
f 1060 	222 	1062
f 225 	1062 	222
f 318 	700 	1074
f 1089 	1082 	600
f 1090 	1071 	1078
f 1091 	692 	1087
f 227 	1064 	1062
f 227 	1062 	225
f 990 	917 	548
f 1064 	227 	1065
f 229 	1065 	227
f 1091 	945 	692
f 987 	548 	542
f 231 	1067 	1065
f 231 	1065 	229
f 1093 	710 	709
f 1093 	709 	1107
f 1094 	1088 	1090
f 1067 	231 	1069
f 236 	1069 	231
f 1095 	711 	1093
f 542 	998 	987
f 711 	710 	1093
f 237 	1070 	1069
f 237 	1069 	236
f 562 	998 	542
f 1097 	711 	1095
f 1070 	237 	239
f 1097 	1098 	695
f 416 	1092 	1086
f 1004 	1346 	1099
f 599 	582 	416
f 1097 	695 	711
f 1090 	1166 	1096
f 612 	1061 	1054
f 696 	695 	1098
f 1098 	1100 	696
f 1198 	1137 	125
f 987 	989 	1058
f 704 	1100 	1101
f 1004 	1099 	1102
f 1004 	1102 	1006
f 132 	125 	128
f 1006 	1102 	1103
f 1006 	1103 	1007
f 705 	704 	1101
f 1078 	1094 	1090
f 1007 	1103 	1121
f 705 	1101 	1104
f 128 	127 	132
f 1121 	1103 	1055
f 1076 	708 	707
f 1345 	1344 	1329
f 1102 	1049 	1103
f 1053 	1055 	1103
f 1076 	707 	1104
f 1008 	1105 	1106
f 1008 	1106 	1010
f 1010 	1106 	1127
f 925 	1109 	658
f 1013 	1108 	1110
f 1013 	1110 	1014
f 1014 	1110 	1105
f 1014 	1105 	1008
f 1109 	1107 	658
f 1023 	1124 	1112
f 1023 	1112 	1015
f 607 	149 	482
f 1015 	1112 	1113
f 1015 	1113 	1016
f 778 	473 	713
f 471 	713 	473
f 1016 	1113 	1115
f 1016 	1115 	1017
f 1116 	1073 	1074
f 606 	1114 	607
f 1017 	1115 	1117
f 1017 	1117 	1018
f 1114 	1119 	149
f 1118 	1042 	1073
f 1018 	1117 	1120
f 1018 	1120 	1019
f 1019 	1120 	1108
f 1019 	1108 	1013
f 1118 	1073 	1116
f 1121 	1021 	1007
f 1116 	1074 	700
f 1021 	1121 	1123
f 1021 	1123 	1022
f 1022 	1123 	1124
f 1022 	1124 	1023
f 1114 	149 	607
f 1144 	1118 	1116
f 1035 	1128 	1034
f 1105 	1072 	1106
f 1039 	1129 	1035
f 1040 	1130 	1039
f 1106 	1034 	1127
f 262 	260 	1122
f 1003 	1078 	1071
f 883 	879 	844
f 150 	1126 	612
f 714 	716 	1178
f 1094 	982 	1088
f 1064 	1065 	1115
f 1062 	1064 	1113
f 1113 	1112 	1062
f 1060 	1062 	1112
f 1059 	1060 	1124
f 1123 	1057 	1124
f 1117 	1115 	1065
f 1120 	1117 	1065
f 1110 	1108 	1070
f 1110 	1070 	1105
f 557 	150 	612
f 1121 	1055 	1123
f 1127 	1025 	1010
f 1137 	1198 	1148
f 1125 	1114 	606
f 1025 	1127 	1128
f 1025 	1128 	1026
f 1026 	1128 	1129
f 1026 	1129 	1027
f 1130 	1029 	1027
f 1130 	1027 	1129
f 1131 	1030 	1029
f 1131 	1029 	1130
f 1132 	1031 	1030
f 1132 	1030 	1131
f 1134 	1032 	1031
f 1134 	1031 	1132
f 1078 	995 	1094
f 1119 	124 	149
f 1134 	1196 	1032
f 1126 	183 	931
f 971 	1088 	982
f 1133 	712 	1156
f 183 	1126 	150
f 1126 	931 	1058
f 1043 	1044 	1131
f 1130 	1043 	1131
f 1129 	1039 	1130
f 1128 	1035 	1129
f 1127 	1034 	1128
f 1043 	1130 	1040
f 1134 	1304 	1200
f 995 	982 	1094
f 418 	593 	540
f 1135 	1125 	606
f 931 	917 	1058
f 1088 	971 	969
f 917 	990 	1058
f 1133 	1137 	685
f 1142 	685 	1137
f 1088 	969 	1111
f 1149 	1136 	1125
f 1139 	697 	638
f 1139 	1140 	1141
f 1142 	1137 	1148
f 1088 	1160 	200
f 655 	1133 	685
f 847 	844 	879
f 844 	843 	885
f 1142 	676 	685
f 267 	732 	270
f 1125 	1135 	1149
f 1114 	1125 	1136
f 1166 	1090 	1088
f 715 	714 	1122
f 1144 	700 	628
f 1119 	1114 	1136
f 260 	715 	1122
f 628 	661 	1144
f 1140 	1143 	1141
f 661 	676 	1144
f 1160 	1088 	1111
f 717 	715 	260
f 1144 	676 	1142
f 269 	717 	260
f 267 	261 	732
f 718 	717 	269
f 1116 	700 	1144
f 261 	1066 	732
f 1160 	1111 	1147
f 262 	1122 	263
f 1111 	969 	1147
f 625 	1133 	655
f 603 	1135 	606
f 368 	397 	1109
f 1148 	1118 	1144
f 1147 	969 	1051
f 1144 	1142 	1148
f 213 	471 	1151
f 1148 	1162 	1118
f 1050 	1150 	1147
f 1147 	1051 	1050
f 1152 	471 	1154
f 1143 	1140 	1198
f 1140 	1139 	1198
f 1139 	1138 	1198
f 1148 	1198 	1138
f 712 	702 	1156
f 1157 	1107 	1158
f 1133 	1156 	125
f 1148 	1138 	1162
f 1161 	1107 	1163
f 1088 	167 	1166
f 554 	1138 	638
f 1165 	1107 	1167
f 554 	1042 	1162
f 167 	1088 	187
f 554 	1162 	1138
f 1137 	1133 	125
f 1167 	1107 	1168
f 1168 	1107 	1169
f 1141 	698 	697
f 1192 	1164 	1153
f 1171 	1109 	1172
f 1141 	697 	1139
f 1156 	951 	125
f 200 	1147 	185
f 600 	1135 	603
f 701 	698 	1141
f 187 	1088 	200
f 1141 	1176 	701
f 1149 	1153 	1136
f 200 	1160 	1147
f 1188 	396 	1175
f 1141 	1143 	1176
f 1178 	1122 	714
f 1147 	1150 	185
f 275 	732 	273
f 1173 	1109 	1177
f 273 	732 	290
f 1145 	1179 	1143
f 1149 	1082 	1153
f 1179 	1176 	1143
f 1180 	1177 	1109
f 1181 	1180 	1109
f 273 	290 	415
f 1082 	1149 	1135
f 1184 	1179 	1146
f 1183 	1109 	1185
f 1178 	716 	724
f 718 	269 	274
f 274 	725 	718
f 1186 	1184 	1146
f 274 	278 	725
f 845 	1228 	779
f 279 	719 	278
f 719 	725 	278
f 1364 	1194 	1189
f 720 	719 	279
f 779 	1228 	785
f 283 	720 	279
f 283 	726 	720
f 1146 	1179 	1145
f 790 	1228 	794
f 565 	1190 	566
f 794 	1228 	797
f 732 	275 	270
f 809 	1228 	812
f 1135 	600 	1082
f 797 	1228 	805
f 721 	727 	299
f 1089 	1192 	1082
f 1199 	1191 	1186
f 564 	566 	1190
f 300 	728 	721
f 805 	1228 	809
f 288 	290 	297
f 297 	290 	301
f 301 	290 	145
f 1082 	1192 	1153
f 299 	300 	721
f 429 	415 	290
f 1086 	1092 	1192
f 1228 	565 	451
f 1089 	1086 	1192
f 1150 	1050 	579
f 825 	1150 	579
f 1153 	1164 	1136
f 812 	451 	817
f 119 	124 	569
f 183 	416 	582
f 567 	1193 	569
f 825 	223 	1150
f 471 	1122 	1178
f 1228 	833 	829
f 726 	293 	727
f 283 	293 	726
f 785 	1228 	790
f 293 	299 	727
f 833 	1228 	836
f 841 	1228 	845
f 1136 	281 	323
f 836 	1228 	841
f 567 	1194 	1193
f 567 	564 	1189
f 1164 	281 	1136
f 451 	812 	1228
f 567 	1189 	1194
f 300 	304 	728
f 304 	733 	728
f 304 	309 	733
f 1109 	396 	1185
f 1109 	1183 	1182
f 1182 	1181 	1109
f 1173 	1172 	1109
f 1109 	1171 	1170
f 1169 	1107 	1170
f 1109 	1170 	1107
f 311 	734 	309
f 734 	733 	309
f 1368 	176 	1367
f 142 	1195 	138
f 314 	729 	311
f 851 	941 	451
f 451 	854 	851
f 1195 	570 	138
f 1196 	535 	146
f 734 	311 	729
f 730 	729 	314
f 316 	730 	314
f 570 	140 	139
f 1032 	1196 	146
f 316 	735 	730
f 142 	138 	570
f 316 	324 	735
f 1197 	1195 	142
f 817 	451 	818
f 1201 	1191 	1199
f 1200 	1196 	1134
f 556 	535 	1196
f 556 	1196 	1200
f 1201 	132 	1191
f 1145 	1198 	1146
f 744 	334 	739
f 1198 	1199 	1186
f 329 	334 	744
f 139 	142 	570
f 334 	350 	739
f 253 	176 	181
f 329 	743 	324
f 743 	735 	324
f 1198 	1186 	1146
f 1198 	1201 	1199
f 157 	214 	155
f 329 	744 	743
f 818 	451 	821
f 1198 	125 	1201
f 1119 	233 	124
f 1145 	1143 	1198
f 821 	451 	941
f 350 	737 	739
f 233 	1119 	1136
f 1201 	125 	132
f 350 	356 	737
f 557 	563 	150
f 151 	150 	563
f 356 	745 	737
f 862 	451 	866
f 356 	359 	745
f 854 	451 	859
f 151 	1205 	152
f 359 	746 	745
f 746 	362 	747
f 1378 	1204 	1375
f 359 	362 	746
f 1379 	1202 	1204
f 1205 	123 	152
f 362 	366 	747
f 366 	748 	747
f 866 	451 	869
f 1378 	1379 	1204
f 366 	374 	748
f 374 	749 	748
f 146 	1367 	176
f 1202 	570 	1204
f 635 	632 	1206
f 374 	378 	749
f 570 	1195 	1204
f 872 	451 	879
f 1205 	1206 	123
f 379 	750 	378
f 1204 	1197 	1203
f 145 	290 	146
f 1030 	146 	1029
f 1030 	1031 	146
f 151 	1206 	1205
f 750 	749 	378
f 563 	635 	1206
f 379 	741 	750
f 1195 	1197 	1204
f 251 	740 	741
f 151 	563 	1206
f 1386 	189 	198
f 1213 	698 	701
f 379 	251 	741
f 228 	189 	155
f 577 	1207 	578
f 1368 	181 	176
f 251 	383 	740
f 701 	1176 	1213
f 195 	578 	193
f 181 	1380 	253
f 751 	740 	383
f 228 	155 	214
f 1207 	193 	578
f 202 	1207 	577
f 202 	193 	1207
f 576 	265 	577
f 1178 	724 	713
f 1174 	396 	215
f 1187 	1185 	396
f 1175 	396 	1174
f 1211 	1209 	1184
f 713 	471 	1178
f 577 	280 	271
f 265 	280 	577
f 1122 	471 	263
f 575 	224 	576
f 1164 	271 	281
f 575 	250 	224
f 268 	271 	1164
f 575 	574 	250
f 925 	823 	1109
f 924 	822 	925
f 928 	1109 	823
f 849 	847 	879
f 793 	849 	879
f 796 	793 	879
f 803 	799 	879
f 799 	796 	879
f 810 	808 	879
f 862 	859 	451
f 574 	124 	250
f 1192 	268 	1164
f 1191 	132 	134
f 1092 	197 	1192
f 451 	815 	879
f 197 	268 	1192
f 1092 	416 	197
f 195 	570 	578
f 1386 	155 	189
f 1202 	571 	570
f 1379 	571 	1202
f 815 	810 	879
f 869 	451 	872
f 808 	803 	879
f 1210 	1213 	1208
f 1213 	1176 	1208
f 383 	399 	751
f 399 	770 	751
f 399 	402 	770
f 1209 	1211 	1208
f 402 	404 	770
f 404 	771 	770
f 404 	407 	771
f 407 	772 	771
f 407 	410 	772
f 410 	773 	772
f 410 	436 	773
f 436 	774 	773
f 436 	439 	774
f 439 	764 	774
f 764 	443 	760
f 764 	439 	443
f 1212 	123 	1206
f 443 	446 	760
f 1212 	1213 	1210
f 456 	1214 	593
f 447 	759 	760
f 1214 	1215 	593
f 1212 	632 	1213
f 885 	883 	844
f 446 	447 	760
f 1206 	632 	1212
f 1215 	540 	593
f 1217 	1216 	540
f 447 	450 	759
f 632 	698 	1213
f 1215 	1217 	540
f 450 	762 	759
f 450 	452 	762
f 1176 	1179 	1209
f 763 	762 	452
f 1187 	396 	1188
f 215 	396 	217
f 1179 	1184 	1209
f 453 	763 	452
f 1214 	1224 	1217
f 453 	455 	763
f 1215 	1214 	1217
f 1209 	1208 	1176
f 455 	767 	763
f 829 	828 	1228
f 1228 	828 	957
f 952 	1228 	953
f 154 	129 	130
f 1218 	1219 	131
f 957 	953 	1228
f 457 	1222 	1223
f 1220 	133 	1221
f 945 	1228 	946
f 1226 	1222 	1225
f 1226 	1223 	1222
f 946 	1228 	948
f 457 	1223 	1214
f 455 	495 	767
f 948 	1228 	952
f 1223 	1224 	1214
f 502 	768 	495
f 1219 	1221 	133
f 768 	767 	495
f 1225 	1222 	457
f 502 	752 	768
f 502 	507 	752
f 1223 	1227 	1224
f 1211 	1220 	1221
f 1226 	1227 	1223
f 1219 	1211 	1221
f 507 	753 	752
f 1211 	1219 	1208
f 1226 	1362 	1227
f 1165 	1163 	1107
f 1107 	1161 	1159
f 1159 	1158 	1107
f 1155 	1154 	1107
f 471 	1107 	1154
f 1152 	1151 	471
f 1157 	1155 	1107
f 507 	512 	753
f 753 	512 	514
f 514 	754 	753
f 1225 	457 	468
f 514 	517 	754
f 1184 	1186 	1220
f 517 	755 	754
f 517 	518 	755
f 518 	756 	755
f 1220 	1211 	1184
f 1191 	1220 	1186
f 523 	756 	518
f 757 	523 	524
f 1191 	134 	1220
f 757 	756 	523
f 129 	1218 	131
f 1079 	1077 	1228
f 1101 	1100 	1228
f 1107 	471 	1228
f 540 	1228 	471
f 524 	758 	757
f 154 	1229 	129
f 524 	526 	758
f 526 	776 	758
f 129 	1229 	1218
f 526 	529 	776
f 123 	154 	152
f 531 	777 	529
f 123 	1229 	154
f 777 	776 	529
f 531 	473 	777
f 1210 	1208 	1229
f 1076 	1104 	1228
f 473 	778 	777
f 1077 	1076 	1228
f 1079 	1228 	1081
f 123 	1210 	1229
f 1232 	1243 	1231
f 1233 	1243 	1232
f 1234 	1243 	1233
f 1235 	1243 	1234
f 1236 	1253 	1235
f 1081 	1228 	1083
f 1083 	1228 	1084
f 1218 	1208 	1219
f 1218 	1229 	1208
f 1084 	1228 	1085
f 1238 	1253 	1237
f 1239 	1253 	1238
f 1240 	1253 	1239
f 1241 	1253 	1240
f 1242 	1267 	1241
f 123 	1212 	1210
f 1085 	1228 	1087
f 1087 	1228 	1091
f 1091 	1228 	945
f 1093 	1107 	1228
f 1104 	1101 	1228
f 1243 	1244 	1245
f 1243 	1245 	1246
f 1243 	1246 	1247
f 1243 	1247 	1248
f 1243 	1248 	1249
f 1243 	1249 	1250
f 1243 	1250 	1251
f 1230 	1231 	1243
f 1251 	1230 	1243
f 1237 	1253 	1236
f 1253 	1241 	1252
f 1254 	1235 	1253
f 1243 	1235 	1254
f 1095 	1093 	1228
f 1097 	1095 	1228
f 1098 	1097 	1228
f 1100 	1098 	1228
f 1260 	1278 	1259
f 1256 	1278 	1260
f 1255 	1278 	1256
f 1258 	1278 	1255
f 1257 	1278 	1258
f 1261 	1278 	1257
f 1262 	1274 	1261
f 1263 	1276 	1262
f 1266 	1242 	1265
f 1267 	1242 	1266
f 1268 	1241 	1267
f 1269 	1241 	1268
f 1270 	1241 	1269
f 1252 	1241 	1270
f 1264 	1265 	1242
f 1272 	1262 	1271
f 1274 	1262 	1273
f 263 	393 	262
f 397 	396 	1109
f 1263 	1275 	1276
f 1277 	1262 	1276
f 1271 	1262 	1277
f 1273 	1262 	1272
f 1278 	1261 	1274
f 1242 	1259 	1279
f 1264 	1242 	1279
f 1278 	1279 	1259
f 1280 	180 	367
f 182 	367 	177
f 177 	367 	178
f 186 	367 	182
f 199 	367 	192
f 178 	367 	180
f 188 	367 	186
f 190 	367 	188
f 192 	367 	190
f 201 	367 	199
f 203 	394 	201
f 204 	394 	203
f 244 	247 	306
f 216 	394 	204
f 241 	375 	235
f 235 	394 	216
f 247 	249 	306
f 302 	306 	249
f 277 	282 	289
f 285 	289 	282
f 276 	277 	289
f 272 	276 	289
f 272 	289 	292
f 272 	292 	296
f 358 	241 	355
f 296 	302 	272
f 241 	244 	306
f 310 	241 	306
f 272 	302 	249
f 313 	241 	310
f 326 	241 	313
f 331 	241 	326
f 336 	241 	331
f 339 	241 	336
f 343 	241 	339
f 422 	241 	358
f 427 	241 	422
f 347 	241 	343
f 371 	241 	442
f 375 	241 	371
f 355 	241 	347
f 380 	235 	375
f 382 	235 	380
f 385 	235 	382
f 389 	235 	385
f 391 	235 	389
f 394 	235 	391
f 398 	201 	394
f 367 	201 	398
f 433 	241 	427
f 438 	241 	433
f 442 	241 	438
f 525 	527 	1251
f 527 	528 	1251
f 528 	530 	1230
f 1232 	532 	572
f 1243 	736 	742
f 1243 	1254 	736
f 536 	538 	1245
f 1246 	538 	543
f 547 	552 	1250
f 552 	525 	1250
f 629 	636 	1239
f 636 	1240 	1239
f 636 	640 	1240
f 660 	662 	1256
f 687 	1261 	686
f 687 	634 	1261
f 634 	633 	1263
f 528 	1230 	1251
f 1230 	530 	1231
f 530 	532 	1231
f 1232 	1231 	532
f 572 	573 	1232
f 573 	1233 	1232
f 609 	1233 	573
f 609 	1234 	1233
f 609 	616 	1234
f 616 	618 	1234
f 618 	1235 	1234
f 618 	622 	1235
f 622 	623 	1235
f 626 	1236 	623
f 1235 	623 	1236
f 626 	1237 	1236
f 626 	627 	1237
f 627 	629 	1238
f 1238 	1237 	627
f 629 	1239 	1238
f 546 	568 	914
f 369 	1293 	365
f 364 	365 	732
f 640 	646 	1240
f 1241 	1240 	646
f 646 	650 	1241
f 370 	1291 	369
f 1242 	1241 	650
f 650 	652 	1242
f 736 	1254 	815
f 742 	534 	1243
f 1244 	1243 	534
f 534 	536 	1244
f 1245 	1244 	536
f 538 	1246 	1245
f 1247 	1246 	543
f 372 	1291 	370
f 543 	522 	1247
f 1248 	1247 	522
f 1248 	521 	1249
f 1248 	522 	521
f 521 	547 	1249
f 547 	1250 	1249
f 525 	1251 	1250
f 652 	1259 	1242
f 659 	1259 	652
f 660 	1260 	659
f 1260 	1259 	659
f 1256 	1260 	660
f 1256 	662 	1255
f 1255 	662 	675
f 1255 	675 	1258
f 1258 	677 	1257
f 686 	1257 	677
f 677 	1258 	675
f 1261 	1257 	686
f 372 	373 	1367
f 634 	1262 	1261
f 1262 	634 	1263
f 1278 	830 	1279
f 1278 	863 	830
f 784 	361 	732
f 830 	835 	1279
f 837 	1264 	835
f 837 	840 	1264
f 840 	1265 	1264
f 1284 	1367 	1283
f 840 	843 	1265
f 844 	1266 	843
f 1266 	1265 	843
f 844 	847 	1266
f 847 	1267 	1266
f 847 	849 	1267
f 1367 	1284 	1285
f 1286 	1367 	1285
f 1286 	1287 	1367
f 849 	793 	1268
f 1268 	1267 	849
f 372 	1367 	1289
f 793 	796 	1268
f 1292 	369 	1291
f 799 	1269 	796
f 1290 	372 	1289
f 1269 	1268 	796
f 799 	803 	1269
f 1293 	369 	1292
f 1296 	732 	1295
f 803 	1270 	1269
f 803 	808 	1270
f 1288 	1289 	1367
f 1290 	1291 	372
f 1294 	365 	1293
f 810 	1252 	808
f 1252 	1270 	808
f 1006 	732 	1004
f 1295 	732 	1294
f 1287 	1288 	1367
f 810 	1253 	1252
f 810 	815 	1253
f 1300 	1367 	1299
f 815 	1254 	1253
f 1298 	1299 	1367
f 1302 	1367 	1301
f 822 	1276 	1275
f 853 	1277 	822
f 1303 	1367 	1302
f 1281 	1282 	1367
f 1277 	1276 	822
f 1303 	1281 	1367
f 1282 	1283 	1367
f 855 	1277 	853
f 856 	1271 	855
f 1271 	1277 	855
f 1272 	1271 	856
f 858 	1272 	856
f 861 	1273 	858
f 556 	1200 	1305
f 1273 	1272 	858
f 1274 	1273 	861
f 863 	1274 	861
f 863 	1278 	1274
f 1264 	1279 	835
f 1275 	823 	822
f 1311 	1312 	1352
f 1263 	633 	1275
f 823 	1275 	633
f 367 	368 	1280
f 928 	1280 	368
f 1312 	1313 	1352
f 136 	1280 	928
f 135 	122 	928
f 1353 	1352 	1313
f 928 	122 	136
f 1332 	1331 	1314
f 177 	136 	122
f 182 	177 	122
f 182 	122 	121
f 1313 	1314 	1353
f 186 	182 	121
f 186 	121 	137
f 1315 	1332 	1314
f 1316 	1332 	1315
f 1318 	1319 	1335
f 1049 	1102 	1321
f 1323 	1338 	1320
f 1324 	1339 	1323
f 1326 	1341 	1325
f 1325 	1339 	1324
f 1327 	1342 	1326
f 1328 	1343 	1327
f 1322 	1321 	1346
f 1099 	1346 	1321
f 1169 	1316 	1315
f 1169 	1170 	1316
f 1317 	1316 	1170
f 1317 	1170 	1318
f 1172 	1319 	1318
f 1172 	1320 	1319
f 1182 	1326 	1325
f 1326 	1182 	1183
f 1326 	1183 	1327
f 1185 	1328 	1183
f 1327 	1183 	1328
f 1328 	1185 	1329
f 1151 	1304 	213
f 1305 	1304 	1151
f 1305 	1151 	1152
f 1305 	1152 	1306
f 1154 	1306 	1152
f 1155 	1307 	1306
f 1155 	1306 	1154
f 1307 	1155 	1308
f 1157 	1308 	1155
f 1158 	1309 	1308
f 1158 	1308 	1157
f 1309 	1158 	1310
f 1159 	1310 	1158
f 1161 	1311 	1310
f 1161 	1310 	1159
f 1311 	1161 	1312
f 1163 	1312 	1161
f 1165 	1313 	1312
f 1165 	1312 	1163
f 1313 	1165 	1314
f 1167 	1314 	1165
f 1314 	1167 	1315
f 1170 	1171 	1318
f 1318 	1171 	1172
f 1177 	1323 	1320
f 1174 	1321 	1175
f 1174 	215 	1321
f 1324 	1323 	1177
f 1188 	1175 	1330
f 1168 	1315 	1167
f 1169 	1315 	1168
f 1173 	1320 	1172
f 1173 	1177 	1320
f 1322 	1175 	1321
f 1049 	1321 	215
f 1180 	1324 	1177
f 1180 	1181 	1324
f 1325 	1324 	1181
f 1325 	1181 	1182
f 1187 	1329 	1185
f 1330 	1329 	1188
f 1188 	1329 	1187
f 1322 	1330 	1175
f 1332 	1282 	1281
f 1332 	1281 	1331
f 1332 	1283 	1282
f 1333 	1283 	1332
f 1334 	1284 	1283
f 1334 	1283 	1333
f 1335 	1285 	1284
f 1335 	1284 	1334
f 1336 	1286 	1285
f 1336 	1285 	1335
f 1337 	1287 	1286
f 1337 	1286 	1336
f 1287 	1337 	1288
f 1317 	1318 	1335
f 1334 	1317 	1335
f 1332 	1316 	1333
f 1333 	1317 	1334
f 1317 	1333 	1316
f 1336 	1335 	1319
f 1319 	1320 	1336
f 1337 	1336 	1320
f 1339 	1338 	1323
f 1338 	1288 	1337
f 1339 	1289 	1288
f 1339 	1288 	1338
f 1340 	1289 	1339
f 1289 	1340 	1290
f 1290 	1340 	1341
f 1290 	1341 	1291
f 1291 	1341 	1342
f 1291 	1342 	1292
f 1292 	1342 	1343
f 1292 	1343 	1293
f 1293 	1343 	1344
f 1293 	1344 	1294
f 1294 	1344 	1345
f 1294 	1345 	1295
f 1295 	1345 	1346
f 1295 	1346 	1296
f 1296 	1346 	1004
f 1339 	1325 	1340
f 1337 	1320 	1338
f 1346 	1345 	1330
f 1330 	1322 	1346
f 1102 	1099 	1321
f 1328 	1329 	1343
f 1344 	1343 	1329
f 1342 	1327 	1343
f 1341 	1326 	1342
f 1340 	1325 	1341
f 1329 	1330 	1345
f 1347 	1297 	558
f 1348 	1298 	1297
f 1348 	1297 	1347
f 1349 	1299 	1298
f 1349 	1298 	1348
f 1350 	1300 	1299
f 1350 	1299 	1349
f 1351 	1301 	1300
f 1351 	1300 	1350
f 1352 	1302 	1301
f 1352 	1301 	1351
f 1353 	1303 	1302
f 1353 	1302 	1352
f 1303 	1353 	1331
f 1303 	1331 	1281
f 1304 	1305 	1200
f 1306 	558 	1305
f 1307 	558 	1306
f 1349 	1348 	1308
f 1310 	1350 	1309
f 1309 	1349 	1308
f 1352 	1351 	1311
f 1353 	1314 	1331
f 1351 	1350 	1311
f 1310 	1311 	1350
f 1349 	1309 	1350
f 1348 	1347 	1308
f 1307 	1308 	1347
f 558 	1307 	1347
f 556 	1305 	558
f 1228 	1358 	1357
f 1228 	1357 	1190
f 565 	1228 	1190
f 1228 	1359 	1356
f 1364 	1190 	1356
f 1356 	1190 	1357
f 1356 	1354 	1355
f 1358 	1356 	1357
f 1359 	1228 	1354
f 1359 	1354 	1356
f 1228 	1356 	1358
f 1364 	1363 	1194
f 564 	1364 	1189
f 1363 	1366 	1365
f 1360 	1361 	1365
f 1366 	1360 	1365
f 1366 	1363 	1364
f 1356 	1360 	1366
f 1356 	1366 	1364
f 1356 	1355 	1360
f 564 	1190 	1364
f 1365 	1361 	1362
f 1365 	1362 	1363
f 1228 	540 	1354
f 1354 	540 	1216
f 1216 	1217 	1354
f 1360 	1355 	1217
f 1361 	1360 	1224
f 1227 	1361 	1224
f 1362 	1361 	1227
f 1355 	1354 	1217
f 1360 	1217 	1224
f 1226 	475 	1369
f 1226 	1369 	1362
f 1367 	914 	568
f 1368 	1367 	568
f 475 	1370 	1369
f 475 	143 	1370
f 143 	119 	1370
f 574 	569 	124
f 119 	569 	1370
f 569 	1193 	1370
f 1372 	1371 	1193
f 1363 	1362 	1371
f 1372 	1363 	1371
f 1194 	1372 	1193
f 1371 	1369 	1370
f 1369 	1371 	1362
f 1371 	1370 	1193
f 1363 	1372 	1194
f 181 	1368 	568
f 1373 	1385 	1374
f 1374 	1375 	1376
f 1375 	1377 	1378
f 1377 	1379 	1378
f 1375 	1385 	1377
f 1374 	1385 	1375
f 1379 	209 	1380
f 571 	1379 	1380
f 181 	571 	1380
f 1381 	1373 	1382
f 1373 	1374 	1383
f 1373 	1383 	1382
f 1384 	1374 	1376
f 1384 	1383 	1374
f 1203 	1384 	1376
f 1204 	1203 	1376
f 1204 	1376 	1375
f 198 	1385 	1386
f 1385 	1381 	1386
f 1385 	1387 	1381
f 1387 	1373 	1381
f 1377 	1385 	1379
f 1387 	1385 	1373
f 209 	1379 	1385
f 198 	209 	1385
f 209 	253 	1380
f 1389 	1388 	1398
f 1397 	1388 	1391
f 1391 	1388 	141
f 1388 	142 	141
f 1388 	1197 	142
f 1389 	1197 	1388
f 1389 	1384 	1203
f 1384 	1389 	1383
f 1197 	1389 	1203
f 1392 	1395 	1394
f 1394 	1395 	1396
f 1396 	1381 	1394
f 166 	1395 	1392
f 1396 	1395 	161
f 161 	155 	1396
f 166 	161 	1395
f 1386 	1396 	155
f 1396 	1386 	1381
f 166 	1392 	1393
f 1393 	157 	166
f 158 	157 	1393
f 157 	1391 	141
f 158 	1397 	1391
f 1398 	1392 	1389
f 1388 	1397 	1393
f 1397 	158 	1393
f 1393 	1398 	1388
f 1393 	1392 	1398
f 1389 	1390 	1394
f 1390 	1389 	1392
f 1392 	1394 	1390
f 1394 	1383 	1389
f 1394 	1382 	1383
f 1394 	1381 	1382
# 2564 faces

 #end of obj_1

